<svg width="24" height="24" viewBox="0 0 24 24" fill="none" xmlns="http://www.w3.org/2000/svg">
<path d="M7.55556 8.66667L9.77778 9.77778M16.4444 8.66667L14.2222 9.77778M12 22C10.6868 22 9.38642 21.7413 8.17317 21.2388C6.95991 20.7363 5.85752 19.9997 4.92893 19.0711C4.00035 18.1425 3.26375 17.0401 2.7612 15.8268C2.25866 14.6136 2 13.3132 2 12C2 10.6868 2.25866 9.38642 2.7612 8.17317C3.26375 6.95991 4.00035 5.85752 4.92893 4.92893C5.85752 4.00035 6.95991 3.26375 8.17317 2.7612C9.38642 2.25866 10.6868 2 12 2C14.6522 2 17.1957 3.05357 19.0711 4.92893C20.9464 6.8043 22 9.34784 22 12C22 14.6522 20.9464 17.1957 19.0711 19.0711C17.1957 20.9464 14.6522 22 12 22Z" stroke="black" stroke-width="2" stroke-linecap="round" stroke-linejoin="round"/>
<path d="M14.7777 16.5C14.4156 16.1304 13.9834 15.8369 13.5065 15.6364C13.0295 15.436 12.5173 15.3328 11.9999 15.3328C11.4826 15.3328 10.9704 15.436 10.4934 15.6364C10.0164 15.8369 9.58426 16.1304 9.22217 16.5" stroke="black" stroke-width="2" stroke-linecap="round" stroke-linejoin="round"/>
</svg>
