<svg width="302" height="200" viewBox="0 0 302 200" fill="none" xmlns="http://www.w3.org/2000/svg">
<g clip-path="url(#clip0_1030_15995)">
<path d="M108.477 115.102C118.79 96.9592 138.463 83.0287 159.289 84.3707C143.927 101.076 134.97 122.676 134.001 145.35C133.659 154.096 134.189 163.859 128.382 170.407C124.769 174.482 119.246 176.456 113.816 176.87C108.386 177.283 102.957 176.302 97.5993 175.325L96.2996 175.724C95.8049 154.861 98.1632 133.244 108.477 115.102Z" fill="#35383F"/>
<path d="M159.32 84.8076C143.92 92.2213 130.788 104.603 122.727 119.704C120.984 122.968 119.5 126.432 118.853 130.094C118.206 133.757 118.658 137.245 119.909 140.724C121.053 143.905 122.592 147.027 122.942 150.431C123.312 154.018 121.992 157.373 119.616 160.035C116.709 163.293 112.804 165.312 108.917 167.153C104.602 169.197 100.087 171.253 97.0299 175.068C96.6596 175.53 95.9639 174.929 96.3337 174.467C101.652 167.829 110.755 166.581 117.068 161.233C120.013 158.738 122.225 155.339 122.085 151.358C121.963 147.876 120.379 144.656 119.193 141.445C117.948 138.073 117.327 134.683 117.773 131.089C118.23 127.412 119.582 123.883 121.233 120.588C124.958 113.157 130.056 106.335 135.896 100.438C142.607 93.6591 150.429 88.0784 159.022 83.9372C159.554 83.6811 159.849 84.5531 159.32 84.8076Z" fill="#1F222A"/>
<path d="M119.117 139.188C125.033 138.323 130.405 135.261 134.164 130.611C134.536 130.15 135.232 130.752 134.86 131.212C130.94 136.044 125.342 139.219 119.184 140.105C118.597 140.189 118.533 139.271 119.117 139.188V139.188Z" fill="#1F222A"/>
<path d="M200.726 141.604C200.362 141.671 199.998 141.739 199.63 141.813C194.74 142.746 189.934 144.075 185.259 145.786C184.895 145.913 184.529 146.046 184.17 146.183C172.951 150.426 162.617 156.714 153.694 164.729C150.146 167.922 146.846 171.38 143.823 175.073C139.648 180.174 135.527 186.037 130.071 189.363C129.506 189.716 128.92 190.034 128.315 190.315L96.887 177.279C96.8305 177.214 96.7706 177.155 96.7137 177.09L95.4351 176.626C95.5777 176.425 95.7299 176.219 95.8725 176.018C95.9548 175.901 96.044 175.786 96.1263 175.669C96.1833 175.592 96.2407 175.515 96.2878 175.442C96.3067 175.416 96.3259 175.391 96.3419 175.372C96.3889 175.299 96.4404 175.237 96.4845 175.171C97.3323 174.018 98.1897 172.869 99.0567 171.725C99.0597 171.718 99.0597 171.718 99.0697 171.713C105.698 163.008 113.111 154.779 121.538 147.938C121.791 147.732 122.047 147.519 122.315 147.319C126.131 144.256 130.19 141.51 134.453 139.109C136.791 137.801 139.194 136.613 141.653 135.548C148.011 132.81 154.76 131.089 161.652 130.448C175.393 129.172 189.389 132.304 199.927 140.937C200.197 141.158 200.459 141.376 200.726 141.604Z" fill="#35383F"/>
<path d="M200.49 141.973C183.73 138.621 165.79 140.601 150.262 147.804C146.905 149.362 143.635 151.234 140.914 153.768C138.191 156.303 136.452 159.36 135.357 162.892C134.355 166.12 133.704 169.539 131.935 172.468C130.07 175.555 126.996 177.439 123.496 178.134C119.213 178.984 114.88 178.245 110.668 177.375C105.992 176.41 101.149 175.332 96.4114 176.538C95.8373 176.685 95.6441 175.785 96.2173 175.639C104.46 173.541 112.48 178.025 120.74 177.556C124.594 177.337 128.406 175.955 130.692 172.692C132.691 169.838 133.365 166.314 134.351 163.036C135.386 159.594 136.932 156.513 139.452 153.912C142.031 151.251 145.235 149.248 148.537 147.611C155.985 143.921 164.163 141.543 172.376 140.35C181.816 138.979 191.421 139.232 200.776 141.099C201.355 141.215 201.065 142.088 200.49 141.973V141.973Z" fill="#1F222A"/>
<path d="M135.649 161.188C140.893 164.059 147.027 164.849 152.827 163.399C153.402 163.255 153.595 164.154 153.021 164.298C146.982 165.796 140.601 164.961 135.151 161.961C134.631 161.674 135.133 160.903 135.649 161.188Z" fill="#1F222A"/>
<path d="M181.498 140.156C181.599 141.307 181.985 142.416 182.621 143.381C183.256 144.347 184.122 145.139 185.139 145.687C185.662 145.967 185.16 146.738 184.641 146.46C183.519 145.849 182.565 144.973 181.86 143.908C181.155 142.843 180.722 141.621 180.599 140.35C180.577 140.231 180.601 140.108 180.667 140.007C180.732 139.905 180.834 139.833 180.951 139.803C181.07 139.778 181.194 139.801 181.297 139.867C181.399 139.933 181.471 140.037 181.498 140.156Z" fill="#1F222A"/>
<path d="M155.186 145.197C154.34 142.397 154.517 139.388 155.685 136.706C156.854 134.025 158.937 131.846 161.563 130.559C162.096 130.3 162.522 131.115 161.989 131.374C159.542 132.568 157.601 134.598 156.518 137.097C155.436 139.596 155.282 142.4 156.085 145.002C156.259 145.568 155.359 145.759 155.186 145.197Z" fill="#1F222A"/>
<path d="M125.088 114.657C122.727 112.931 121.057 110.421 120.375 107.577C119.694 104.733 120.045 101.739 121.367 99.1301C121.637 98.6031 122.468 98.9968 122.198 99.5245C120.963 101.952 120.636 104.74 121.276 107.388C121.916 110.035 123.481 112.366 125.689 113.961C126.168 114.308 125.565 115.002 125.088 114.657Z" fill="#1F222A"/>
<path d="M140.858 163.11C136.456 141.829 130.954 134.734 130.954 134.734L128.853 133.104L126.325 131.14L126.337 130.888L125.738 130.684L125.597 130.575L125.366 130.398L125.329 130.437L125.251 130.519L113.813 126.631L99.3024 121.702L92.583 112.968C91.4887 111.546 90.0798 110.396 88.4668 109.609C86.8538 108.822 85.0805 108.42 83.2858 108.433L61.8264 108.592C58.9249 108.613 56.1363 109.72 54.0089 111.693L39.904 124.776L17.9257 135.273L17.8886 135.236L17.6578 135.401L14.262 137.024L14.4021 137.754L12.3003 139.27C12.3003 139.27 6.79858 145.872 2.39716 165.675C1.27749 170.713 0.726348 181.522 0.527415 194.841C0.517422 195.514 0.641473 196.184 0.892351 196.809C1.14323 197.434 1.51593 198.004 1.98879 198.484C2.46164 198.964 3.02521 199.345 3.64673 199.605C4.26826 199.866 4.93533 200 5.60916 200H122.999V200H137.651C138.324 200 138.991 199.866 139.612 199.606C140.233 199.345 140.796 198.965 141.269 198.485C141.742 198.006 142.115 197.437 142.366 196.812C142.617 196.188 142.742 195.519 142.733 194.846C142.538 180.353 141.987 168.575 140.858 163.11Z" fill="#FF575C"/>
<path opacity="0.2" d="M28.1982 156.685L36.0836 199.588L40.8149 200L28.1982 156.685Z" fill="black"/>
<path opacity="0.2" d="M115.057 153.45L107.171 199.557L102.44 200L115.057 153.45Z" fill="black"/>
<path d="M143.062 94.7907C143.836 95.649 144.811 96.3016 145.9 96.6898C146.989 97.0779 148.157 97.1896 149.3 97.0147C149.885 96.9233 149.949 97.8412 149.367 97.932C148.104 98.1194 146.814 97.9945 145.61 97.5683C144.406 97.142 143.325 96.4275 142.461 95.487C142.372 95.4052 142.317 95.2926 142.308 95.1721C142.3 95.0516 142.337 94.9323 142.413 94.8384C142.493 94.7466 142.606 94.6901 142.727 94.6812C142.849 94.6723 142.969 94.7116 143.062 94.7907Z" fill="#1F222A"/>
<path d="M75.9259 100.371C91.4528 100.371 104.04 87.7844 104.04 72.2575C104.04 56.7306 91.4528 44.1436 75.9259 44.1436C60.399 44.1436 47.812 56.7306 47.812 72.2575C47.812 87.7844 60.399 100.371 75.9259 100.371Z" fill="#9E616A"/>
<path d="M68.7338 98.9948C68.6137 98.7303 68.494 98.465 68.3745 98.1987C68.4205 98.2002 68.4661 98.2068 68.5121 98.208L68.7338 98.9948Z" fill="#2F2E41"/>
<path d="M47.0302 45.4219C48.4521 44.2876 50.114 43.2439 51.932 43.3026C53.7499 43.3612 55.5935 45.0031 55.2168 46.7827C58.556 40.8702 63.8711 36.3229 70.229 33.9389C76.587 31.5548 83.5815 31.4864 89.9849 33.7456C94.5033 35.3397 98.9343 38.5289 99.9722 43.2065C100.239 44.4072 100.296 45.7238 101.046 46.6989C101.991 47.9282 103.799 48.2063 105.289 47.7739C105.304 47.7695 105.318 47.7651 105.333 47.7607C105.585 47.6748 105.856 47.6664 106.113 47.7365C106.369 47.8066 106.599 47.952 106.772 48.154C106.945 48.356 107.053 48.6051 107.083 48.8693C107.112 49.1335 107.062 49.4005 106.938 49.6359L105.66 52.0202C107.272 52.3794 108.946 52.3438 110.541 51.9164C110.806 51.8469 111.086 51.8611 111.342 51.957C111.599 52.0529 111.82 52.2259 111.974 52.4521C112.128 52.6783 112.209 52.9468 112.205 53.2207C112.2 53.4945 112.112 53.7604 111.95 53.9818C107.735 59.7696 100.692 63.507 93.5046 63.4631C88.3965 63.4319 83.2357 61.6714 78.2643 62.8461C76.3411 63.3006 74.544 64.1798 73.0048 65.4194C71.4657 66.6589 70.2237 68.2274 69.3698 70.0096C68.5159 71.7918 68.0718 73.7425 68.0702 75.7187C68.0685 77.6949 68.5094 79.6464 69.3603 81.43C67.8331 79.7595 64.8808 80.155 63.3185 81.7929C61.7563 83.4308 61.3519 85.8754 61.5093 88.1333C61.75 91.5868 63.1031 94.8409 64.5295 98.0081C52.5702 97.6316 41.2586 89.2423 37.4511 77.8955C33.6276 66.5013 37.6347 52.9169 47.0302 45.4219Z" fill="#2F2E41"/>
<path d="M155.919 18.5593C151.352 18.5593 146.972 20.3736 143.742 23.6031C140.513 26.8326 138.699 31.2127 138.699 35.7798C138.699 40.347 140.513 44.7271 143.742 47.9566C146.972 51.186 151.352 53.0003 155.919 53.0003H284.253C288.82 53.0003 293.2 51.186 296.43 47.9566C299.659 44.7271 301.473 40.347 301.473 35.7798C301.473 31.2127 299.659 26.8326 296.43 23.6031C293.2 20.3736 288.82 18.5593 284.253 18.5593H155.919Z" fill="#424242"/>
<path d="M155.919 22.0444C152.277 22.0444 148.783 23.4916 146.207 26.0674C143.631 28.6433 142.184 32.137 142.184 35.7798C142.184 39.4227 143.631 42.9163 146.207 45.4922C148.783 48.0681 152.277 49.5152 155.919 49.5152H284.253C287.896 49.5152 291.39 48.0681 293.966 45.4922C296.541 42.9163 297.989 39.4227 297.989 35.7798C297.989 32.137 296.541 28.6433 293.966 26.0674C291.39 23.4916 287.896 22.0444 284.253 22.0444H155.919Z" fill="#1F222A"/>
<path d="M281.439 44.6077H255.906C255.743 44.6066 255.588 44.5413 255.474 44.4261C255.359 44.3109 255.295 44.1551 255.295 43.9927C255.295 43.8303 255.359 43.6745 255.474 43.5593C255.588 43.4441 255.743 43.3788 255.906 43.3777H281.439C281.602 43.3788 281.757 43.4441 281.872 43.5593C281.986 43.6745 282.05 43.8303 282.05 43.9927C282.05 44.1551 281.986 44.3109 281.872 44.4261C281.757 44.5413 281.602 44.6066 281.439 44.6077Z" fill="#FF575C"/>
<path d="M249.048 44.4027H223.515C223.352 44.4016 223.197 44.3363 223.082 44.221C222.968 44.1058 222.904 43.95 222.904 43.7876C222.904 43.6252 222.968 43.4694 223.082 43.3542C223.197 43.239 223.352 43.1737 223.515 43.1726H249.048C249.129 43.1721 249.21 43.1876 249.285 43.2182C249.36 43.2489 249.428 43.2941 249.486 43.3513C249.543 43.4084 249.589 43.4764 249.62 43.5513C249.651 43.6262 249.667 43.7065 249.667 43.7876C249.667 43.8688 249.651 43.9491 249.62 44.024C249.589 44.0989 249.543 44.1668 249.486 44.224C249.428 44.2812 249.36 44.3264 249.285 44.357C249.21 44.3877 249.129 44.4032 249.048 44.4027H249.048Z" fill="#FF575C"/>
<path d="M216.658 44.1978H191.124C191.043 44.1984 190.963 44.1829 190.887 44.1522C190.812 44.1216 190.744 44.0763 190.687 44.0192C190.629 43.962 190.583 43.894 190.552 43.8191C190.521 43.7442 190.505 43.6639 190.505 43.5828C190.505 43.5017 190.521 43.4214 190.552 43.3465C190.583 43.2716 190.629 43.2036 190.687 43.1464C190.744 43.0893 190.812 43.0441 190.887 43.0134C190.963 42.9827 191.043 42.9672 191.124 42.9678H216.658C216.739 42.9672 216.819 42.9827 216.894 43.0134C216.969 43.0441 217.038 43.0893 217.095 43.1464C217.153 43.2036 217.199 43.2716 217.23 43.3465C217.261 43.4214 217.277 43.5017 217.277 43.5828C217.277 43.6639 217.261 43.7442 217.23 43.8191C217.199 43.894 217.153 43.962 217.095 44.0192C217.038 44.0763 216.969 44.1216 216.894 44.1522C216.819 44.1829 216.739 44.1984 216.658 44.1978Z" fill="#FF575C"/>
<path d="M184.267 43.9927H158.733C158.652 43.9933 158.571 43.9778 158.496 43.9471C158.421 43.9165 158.353 43.8713 158.295 43.8141C158.238 43.7569 158.192 43.6889 158.161 43.6141C158.13 43.5392 158.114 43.4588 158.114 43.3777C158.114 43.2966 158.13 43.2163 158.161 43.1414C158.192 43.0665 158.238 42.9985 158.295 42.9414C158.353 42.8842 158.421 42.839 158.496 42.8083C158.571 42.7777 158.652 42.7622 158.733 42.7627H184.267C184.429 42.7638 184.584 42.8291 184.699 42.9443C184.813 43.0595 184.877 43.2153 184.877 43.3777C184.877 43.5401 184.813 43.6959 184.699 43.8111C184.584 43.9264 184.429 43.9916 184.267 43.9927Z" fill="#FF575C"/>
<path d="M269.203 38.3325C271.824 38.3325 273.949 36.2079 273.949 33.5869C273.949 30.966 271.824 28.8413 269.203 28.8413C266.582 28.8413 264.458 30.966 264.458 33.5869C264.458 36.2079 266.582 38.3325 269.203 38.3325Z" fill="#FF575C"/>
<path d="M236.617 38.3325C239.238 38.3325 241.362 36.2079 241.362 33.5869C241.362 30.966 239.238 28.8413 236.617 28.8413C233.996 28.8413 231.871 30.966 231.871 33.5869C231.871 36.2079 233.996 38.3325 236.617 38.3325Z" fill="#FF575C"/>
<path d="M204.03 38.3325C206.651 38.3325 208.776 36.2079 208.776 33.5869C208.776 30.966 206.651 28.8413 204.03 28.8413C201.409 28.8413 199.285 30.966 199.285 33.5869C199.285 36.2079 201.409 38.3325 204.03 38.3325Z" fill="#FF575C"/>
<path d="M171.443 38.3325C174.064 38.3325 176.189 36.2079 176.189 33.5869C176.189 30.966 174.064 28.8413 171.443 28.8413C168.822 28.8413 166.698 30.966 166.698 33.5869C166.698 36.2079 168.822 38.3325 171.443 38.3325Z" fill="#FF575C"/>
<path d="M53.7558 30.9832C52.2439 31.6145 50.6663 30.9227 50.0047 29.3382C49.3329 27.7295 49.9603 26.0965 51.4964 25.455C53.0327 24.8136 54.5822 25.5071 55.2648 27.1418C55.9371 28.7519 55.3166 30.3315 53.7558 30.9832ZM50.8596 22.2886L49.6575 22.7906C49.3572 22.9145 49.0213 22.9212 48.7163 22.8093C48.4113 22.6974 48.1594 22.4752 48.0104 22.1865L47.951 22.0702C46.6575 19.7374 46.5094 16.9023 47.5131 13.648C48.4429 10.7287 48.8291 8.67559 48.0524 6.81557C47.1545 4.66504 45.2369 3.99138 42.7916 4.96725C41.8432 5.36327 41.5415 5.35696 40.7951 6.09734C40.6328 6.26035 40.4393 6.38899 40.2261 6.47561C40.013 6.56222 39.7846 6.60502 39.5545 6.60146C39.3322 6.59885 39.1126 6.55147 38.9089 6.46217C38.7052 6.37286 38.5216 6.24345 38.369 6.08166C38.0751 5.76986 37.9104 5.35813 37.9082 4.92961C37.9061 4.50109 38.0666 4.08772 38.3574 3.77297C39.6119 2.45977 41.1249 1.42087 42.8011 0.721815C48.055 -1.47202 50.6998 1.76686 51.9101 4.66535C53.0939 7.50041 52.428 10.1309 51.358 13.5376C50.4614 16.3683 50.5136 18.4659 51.5321 20.5515C51.6057 20.7092 51.6466 20.8801 51.6524 21.054C51.6583 21.2279 51.6289 21.4011 51.5661 21.5634C51.5033 21.7256 51.4083 21.8735 51.2869 21.9981C51.1655 22.1228 51.0202 22.2216 50.8596 22.2886L50.8596 22.2886Z" fill="#FF575C"/>
</g>
<defs>
<clipPath id="clip0_1030_15995">
<rect width="300.947" height="200" fill="white" transform="translate(0.526855)"/>
</clipPath>
</defs>
</svg>
