<svg width="290" height="250" viewBox="0 0 290 250" fill="none" xmlns="http://www.w3.org/2000/svg">
<g clip-path="url(#clip0_1030_15916)">
<path d="M201.664 243.827L196.295 243.827L193.741 223.115L201.666 223.116L201.664 243.827Z" fill="#A0616A"/>
<path d="M201.854 249.429L185.342 249.428V249.219C185.342 247.515 186.019 245.88 187.224 244.675C188.43 243.47 190.064 242.792 191.769 242.792H191.769L194.785 240.504L200.413 242.793L201.854 242.793L201.854 249.429Z" fill="#2F2E41"/>
<path d="M239.657 243.827L245.027 243.827L247.581 223.115L239.656 223.116L239.657 243.827Z" fill="#A0616A"/>
<path d="M267.668 231.698L275.427 229.237C276.394 225.073 276.33 220.736 275.24 216.602C272.123 223.533 262.978 225.231 257.767 230.763C256.155 232.501 254.955 234.579 254.255 236.844C253.556 239.109 253.375 241.502 253.726 243.846L252.093 249.383C255.906 249.058 259.602 247.909 262.928 246.017C266.254 244.125 269.131 241.535 271.359 238.424C272.592 236.667 273.599 234.761 274.355 232.752C271.046 232.421 267.668 231.698 267.668 231.698Z" fill="#35383F"/>
<path d="M259.377 221.459L265.224 215.796C264.232 211.637 262.24 207.784 259.421 204.57C259.722 212.164 252.294 217.762 250.098 225.037C249.43 227.312 249.283 229.707 249.667 232.046C250.05 234.385 250.956 236.608 252.316 238.549L253.324 244.234C256.591 242.242 259.388 239.565 261.521 236.389C263.654 233.212 265.073 229.611 265.68 225.833C266 223.71 266.051 221.555 265.832 219.42C262.723 220.599 259.377 221.459 259.377 221.459Z" fill="#35383F"/>
<path d="M239.468 249.429L255.98 249.428V249.219C255.98 247.515 255.303 245.88 254.097 244.675C252.892 243.47 251.258 242.792 249.553 242.792H249.553L246.537 240.504L240.909 242.793L239.468 242.793L239.468 249.429Z" fill="#2F2E41"/>
<path d="M289.018 249.427C289.018 249.503 289.003 249.577 288.975 249.647C288.946 249.716 288.904 249.78 288.85 249.833C288.797 249.886 288.734 249.928 288.664 249.957C288.595 249.986 288.52 250 288.445 250H153.525C153.374 250 153.228 249.94 153.12 249.832C153.013 249.725 152.953 249.579 152.953 249.427C152.953 249.275 153.013 249.13 153.12 249.022C153.228 248.915 153.374 248.854 153.525 248.854H288.445C288.52 248.854 288.595 248.869 288.664 248.898C288.734 248.926 288.797 248.969 288.85 249.022C288.904 249.075 288.946 249.138 288.975 249.208C289.003 249.277 289.018 249.352 289.018 249.427Z" fill="#CCCCCC"/>
<path d="M135.13 165.339H13.4989C13.0012 165.339 12.524 165.142 12.1721 164.79C11.8202 164.438 11.6226 163.961 11.6226 163.463C11.6226 162.965 11.8202 162.488 12.1721 162.136C12.524 161.784 13.0012 161.587 13.4989 161.587H135.13C135.627 161.587 136.105 161.784 136.456 162.136C136.808 162.488 137.006 162.965 137.006 163.463C137.006 163.961 136.808 164.438 136.456 164.79C136.105 165.142 135.627 165.339 135.13 165.339Z" fill="#35383F"/>
<path d="M178.37 157.925H13.4988C13.2522 157.926 13.0079 157.878 12.7799 157.784C12.5519 157.689 12.3448 157.551 12.1702 157.377C11.9957 157.203 11.8572 156.996 11.7627 156.768C11.6683 156.54 11.6196 156.296 11.6196 156.049C11.6196 155.803 11.6683 155.558 11.7627 155.331C11.8572 155.103 11.9957 154.896 12.1702 154.722C12.3448 154.547 12.5519 154.409 12.7799 154.315C13.0079 154.221 13.2522 154.173 13.4988 154.173H178.37C178.893 154.202 179.386 154.426 179.752 154.8C180.119 155.173 180.332 155.671 180.351 156.194C180.335 156.438 180.272 156.677 180.164 156.896C180.055 157.115 179.905 157.311 179.721 157.472C179.537 157.633 179.323 157.756 179.091 157.834C178.859 157.912 178.614 157.943 178.37 157.925Z" fill="#35383F"/>
<path d="M17.9232 150.274C21.403 150.274 24.2239 147.453 24.2239 143.973C24.2239 140.494 21.403 137.673 17.9232 137.673C14.4435 137.673 11.6226 140.494 11.6226 143.973C11.6226 147.453 14.4435 150.274 17.9232 150.274Z" fill="#35383F"/>
<path d="M145.779 119.874H13.4989C13.0012 119.874 12.524 119.677 12.1721 119.325C11.8202 118.973 11.6226 118.496 11.6226 117.998C11.6226 117.501 11.8202 117.023 12.1721 116.671C12.524 116.32 13.0012 116.122 13.4989 116.122H145.779C146.276 116.122 146.754 116.32 147.105 116.671C147.457 117.023 147.655 117.501 147.655 117.998C147.655 118.496 147.457 118.973 147.105 119.325C146.754 119.677 146.276 119.874 145.779 119.874Z" fill="#35383F"/>
<path d="M155.411 112.461H13.4989C13.0012 112.461 12.524 112.263 12.1721 111.911C11.8202 111.559 11.6226 111.082 11.6226 110.584C11.6226 110.087 11.8202 109.609 12.1721 109.258C12.524 108.906 13.0012 108.708 13.4989 108.708H155.411C155.908 108.708 156.386 108.906 156.737 109.258C157.089 109.609 157.287 110.087 157.287 110.584C157.287 111.082 157.089 111.559 156.737 111.911C156.386 112.263 155.908 112.461 155.411 112.461Z" fill="#35383F"/>
<path d="M148.516 202.822C174.285 202.822 195.175 181.931 195.175 156.162C195.175 130.393 174.285 109.502 148.516 109.502C122.746 109.502 101.856 130.393 101.856 156.162C101.856 181.931 122.746 202.822 148.516 202.822Z" fill="#FF575C"/>
<path d="M148.451 172.442C152.133 172.442 155.117 169.457 155.117 165.776C155.117 162.095 152.133 159.11 148.451 159.11C144.77 159.11 141.786 162.095 141.786 165.776C141.786 169.457 144.77 172.442 148.451 172.442Z" fill="#3F3D56"/>
<path d="M148.451 168.852C150.151 168.852 151.528 167.475 151.528 165.776C151.528 164.077 150.151 162.699 148.451 162.699C146.752 162.699 145.375 164.077 145.375 165.776C145.375 167.475 146.752 168.852 148.451 168.852Z" fill="#FF575C"/>
<path d="M160.825 180.614H136.206C133.769 180.611 131.432 179.642 129.708 177.918C127.984 176.194 127.015 173.857 127.012 171.42V160.132C127.015 157.694 127.984 155.357 129.708 153.634C131.432 151.91 133.769 150.94 136.206 150.938H160.825C163.263 150.94 165.6 151.91 167.323 153.634C169.047 155.357 170.017 157.694 170.019 160.132V171.42C170.017 173.857 169.047 176.194 167.323 177.918C165.6 179.642 163.263 180.611 160.825 180.614ZM136.206 151.9C134.024 151.903 131.932 152.771 130.388 154.314C128.845 155.857 127.977 157.95 127.974 160.132V171.42C127.977 173.602 128.845 175.694 130.388 177.237C131.932 178.781 134.024 179.649 136.206 179.651H160.825C163.007 179.649 165.1 178.781 166.643 177.237C168.186 175.694 169.054 173.602 169.057 171.42V160.132C169.054 157.95 168.186 155.857 166.643 154.314C165.1 152.771 163.007 151.903 160.825 151.9L136.206 151.9Z" fill="#1F222A"/>
<path d="M134.748 174.487H156.6C157.734 174.487 158.857 174.263 159.905 173.829C160.953 173.395 161.905 172.759 162.707 171.957C163.509 171.155 164.145 170.203 164.579 169.155C165.013 168.107 165.236 166.984 165.236 165.85V156.404C165.235 155.357 165.042 154.318 164.667 153.34C165.733 154.143 166.598 155.182 167.193 156.376C167.789 157.57 168.099 158.887 168.099 160.221V169.667C168.099 170.801 167.876 171.924 167.442 172.972C167.008 174.02 166.371 174.972 165.569 175.774C164.767 176.576 163.815 177.212 162.768 177.646C161.72 178.08 160.597 178.304 159.462 178.304H137.611C135.86 178.303 134.15 177.769 132.709 176.774C131.269 175.779 130.165 174.369 129.544 172.731C131.04 173.87 132.868 174.487 134.748 174.487Z" fill="#3F3D56"/>
<path d="M193.504 207.896C193.584 206.714 194.214 200.179 194.214 200.179L195.725 186.318L198.386 149.577L198.56 147.172L212.504 144.495L222.033 139.927L233.36 143.547L242.18 146.855C242.18 146.855 242.195 148.271 242.263 149.981C242.354 152.22 242.513 154.965 242.89 155.679C243.521 156.94 243.362 163.709 243.362 163.709C243.362 163.709 243.989 177.483 244.778 178.993C245.567 180.504 245.726 183.649 245.488 184.279C245.25 184.91 246.277 201.451 246.277 201.451C246.277 201.451 248.913 230.723 247.259 235.137C245.605 239.55 239.356 236.659 239.356 236.659C239.356 236.659 239.658 235.481 237.846 234.926C236.034 234.371 230.513 192.865 230.513 192.865C230.513 192.865 229.487 184.355 228.543 181.916C227.599 179.477 226.73 172.624 226.73 172.624C226.73 172.624 220.901 161.282 220.825 158.76C220.825 158.76 220.062 156.4 219.341 158.997C218.62 161.595 216.494 167.817 216.494 167.817L214.422 175.459L211.983 186.877L210.404 196.49C210.404 196.49 208.041 209.248 207.663 209.799C207.286 210.35 207.663 222.006 207.663 222.006C207.663 222.006 205.836 231.932 203.253 233.665C200.671 235.398 193.828 233.692 193.828 233.692C193.828 233.692 193.425 209.078 193.504 207.896Z" fill="#2F2E41"/>
<path d="M148.894 130.863C144.331 130.863 140.319 132.929 138.048 136.03C140.476 134.263 143.407 133.322 146.41 133.347C153.477 133.347 159.227 138.297 159.227 144.382V149.44H161.711V141.898C161.711 135.813 155.961 130.863 148.894 130.863Z" fill="#3F3D56"/>
<path d="M163.418 152.029H133.613V143.259C133.613 136.184 140.298 130.428 148.516 130.428C156.733 130.428 163.418 136.184 163.418 143.259V152.029ZM134.576 151.066H162.455V143.259C162.455 136.715 156.202 131.391 148.516 131.391C140.829 131.391 134.576 136.715 134.576 143.259V151.066Z" fill="#1F222A"/>
<path d="M156.148 148.681H140.882C140.196 148.68 139.537 148.407 139.051 147.921C138.566 147.435 138.293 146.777 138.292 146.09V142.6C138.292 137.735 142.878 133.776 148.515 133.776C154.153 133.776 158.739 137.735 158.739 142.6V146.09C158.738 146.777 158.465 147.435 157.979 147.921C157.494 148.407 156.835 148.68 156.148 148.681ZM148.515 134.739C143.409 134.739 139.255 138.265 139.255 142.6V146.09C139.255 146.522 139.427 146.935 139.732 147.241C140.037 147.546 140.451 147.718 140.882 147.718H156.148C156.58 147.718 156.994 147.546 157.299 147.241C157.604 146.935 157.776 146.522 157.776 146.09V142.6C157.776 138.265 153.622 134.739 148.515 134.739Z" fill="#1F222A"/>
<path d="M178.37 105.047H13.4988C13.0012 105.047 12.5239 104.849 12.1721 104.497C11.8202 104.145 11.6226 103.668 11.6226 103.171C11.6226 102.673 11.8202 102.196 12.1721 101.844C12.5239 101.492 13.0012 101.294 13.4988 101.294H178.37C178.868 101.294 179.345 101.492 179.697 101.844C180.049 102.196 180.246 102.673 180.246 103.171C180.246 103.668 180.049 104.145 179.697 104.497C179.345 104.849 178.868 105.047 178.37 105.047Z" fill="#35383F"/>
<path d="M17.9232 97.3957C21.403 97.3957 24.2239 94.5748 24.2239 91.0951C24.2239 87.6153 21.403 84.7944 17.9232 84.7944C14.4435 84.7944 11.6226 87.6153 11.6226 91.0951C11.6226 94.5748 14.4435 97.3957 17.9232 97.3957Z" fill="#35383F"/>
<path d="M199.453 113.663L202.553 123L198.728 127.553L200.412 129.286L199.17 131.737L195.93 157.419L213.691 164.155L219.672 156.656L224.387 164.155L244.938 159.133L239.697 126.383V124.242L238.218 120.108V111.355L242.125 85.3035L230.462 81.2182L224.886 76.8047L223.081 83.0118L215.398 81.6452L215.197 76.9818L209.319 82.5362L204.368 83.948L198.441 85.3035L197.686 87.1914L199.196 86.814L198.951 111.375L199.453 113.663Z" fill="#2F2E41"/>
<path d="M246.045 147.827L243.062 118.954L242.275 107.071L250.624 105.561C250.624 105.561 250.293 114.058 251.387 118.852C252.466 123.583 251.53 147.193 251.463 147.824C252.076 148.372 252.509 149.094 252.703 149.893C252.897 150.692 252.844 151.532 252.551 152.3C252.257 153.069 251.738 153.73 251.06 154.197C250.383 154.664 249.58 154.914 248.758 154.914C247.935 154.914 247.132 154.665 246.454 154.199C245.776 153.733 245.256 153.072 244.962 152.304C244.668 151.536 244.614 150.696 244.807 149.897C245.001 149.097 245.432 148.375 246.045 147.827Z" fill="#A0616A"/>
<path d="M194.144 147.827L197.127 118.954L197.914 107.071L189.565 105.561C189.565 105.561 189.896 114.058 188.802 118.852C187.723 123.583 188.659 147.193 188.726 147.824C188.113 148.372 187.681 149.094 187.486 149.893C187.292 150.692 187.345 151.532 187.639 152.3C187.932 153.069 188.451 153.73 189.129 154.197C189.806 154.664 190.609 154.914 191.432 154.914C192.254 154.914 193.057 154.665 193.735 154.199C194.413 153.733 194.933 153.072 195.227 152.304C195.521 151.536 195.575 150.696 195.382 149.897C195.188 149.097 194.757 148.375 194.144 147.827Z" fill="#A0616A"/>
<path d="M254.189 124.937L251.867 125.416L243.9 127.066L243.459 127.157L242.518 123.419L241.427 122.256L239.351 111.375L239.241 110.808L236.104 104.103L236.821 83.9482L242.005 85.3981C242.047 85.4396 242.084 85.4849 242.122 85.5302C243.281 86.8442 244.108 88.6716 245.46 90.5103C249.858 96.4948 253.234 111.035 253.102 119.002C253.098 119.13 253.23 119.27 253.388 119.413C254.137 120.101 254.625 121.026 254.771 122.033C254.917 123.039 254.711 124.065 254.189 124.937Z" fill="#2F2E41"/>
<path d="M186.001 124.937L188.323 125.416L196.289 127.066L196.731 127.157L197.671 123.419L198.762 122.256L200.839 111.375L200.948 110.808L204.086 104.103L206.257 83.9482L198.184 85.3981C198.143 85.4396 198.105 85.4849 198.067 85.5302C196.908 86.8441 196.081 88.6716 194.73 90.5103C190.331 96.4948 186.956 111.035 187.088 119.002C187.092 119.13 186.96 119.27 186.801 119.413C186.052 120.101 185.564 121.026 185.418 122.033C185.272 123.039 185.478 124.065 186.001 124.937Z" fill="#2F2E41"/>
<path d="M211.405 86.9303L215.198 76.9821L224.886 76.8047L228.101 86.9303L239.656 151.482C239.656 151.482 204.255 161.34 204.615 149.49C204.992 137.03 206.696 120.48 206.696 120.48L211.405 86.9303Z" fill="#FF575C"/>
<path d="M135.13 66.996H13.4989C13.0012 66.996 12.524 66.7983 12.1721 66.4465C11.8202 66.0946 11.6226 65.6173 11.6226 65.1197C11.6226 64.6221 11.8202 64.1448 12.1721 63.793C12.524 63.4411 13.0012 63.2434 13.4989 63.2434H135.13C135.627 63.2434 136.105 63.4411 136.456 63.793C136.808 64.1448 137.006 64.6221 137.006 65.1197C137.006 65.6173 136.808 66.0946 136.456 66.4465C136.105 66.7983 135.627 66.996 135.13 66.996Z" fill="#35383F"/>
<path d="M178.37 59.582H13.4988C13.0012 59.582 12.5239 59.3843 12.1721 59.0325C11.8202 58.6806 11.6226 58.2034 11.6226 57.7058C11.6226 57.2082 11.8202 56.731 12.1721 56.3791C12.5239 56.0273 13.0012 55.8296 13.4988 55.8296H178.37C178.868 55.8296 179.345 56.0273 179.697 56.3791C180.049 56.731 180.246 57.2082 180.246 57.7058C180.246 58.2034 180.049 58.6806 179.697 59.0325C179.345 59.3843 178.868 59.582 178.37 59.582Z" fill="#35383F"/>
<path d="M219.825 74.1994C226.128 74.1994 231.238 69.0897 231.238 62.7865C231.238 56.4833 226.128 51.3735 219.825 51.3735C213.522 51.3735 208.412 56.4833 208.412 62.7865C208.412 69.0897 213.522 74.1994 219.825 74.1994Z" fill="#A0616A"/>
<path d="M207.739 54.5071C209.597 52.4847 211.921 48.7828 218.961 47.2283C227.659 45.3074 231.769 53.1652 229.576 53.294C235.99 55.2363 231.87 68.5099 230.031 67.3967C230.015 67.3857 230 67.3739 229.985 67.3612C228.996 66.633 228.166 65.7107 227.546 64.6508C226.925 63.5909 226.527 62.4156 226.376 61.1967L226.027 58.0556C225.978 60.6113 223.365 60.9494 220.697 60.0081C220.855 59.4478 221.156 58.9383 221.571 58.5299C221.985 58.1215 222.499 57.8283 223.062 57.6792C221.202 59.3657 218.839 60.3939 216.337 60.6055C216.468 59.9656 216.734 59.3611 217.118 58.8328C217.502 58.3044 217.995 57.8643 218.563 57.542L218.458 57.4385C217.416 58.3174 216.219 58.9948 214.93 59.4363C213.458 59.858 211.696 59.6299 210.688 58.4784C210.417 58.1606 210.212 57.7917 210.085 57.3934C210.303 59.4173 208.945 61.7277 207.891 61.331C207.014 61.1605 206.502 55.8534 207.739 54.5071Z" fill="#2F2E41"/>
<path d="M17.9232 51.9309C21.403 51.9309 24.2239 49.11 24.2239 45.6302C24.2239 42.1505 21.403 39.3296 17.9232 39.3296C14.4435 39.3296 11.6226 42.1505 11.6226 45.6302C11.6226 49.11 14.4435 51.9309 17.9232 51.9309Z" fill="#35383F"/>
<path d="M220.51 16.5991H1.83284C1.60539 16.5943 1.38889 16.5005 1.22973 16.338C1.07058 16.1754 0.981445 15.957 0.981445 15.7295C0.981445 15.502 1.07058 15.2835 1.22973 15.121C1.38889 14.9584 1.60539 14.8647 1.83284 14.8599H220.51C220.737 14.8647 220.954 14.9584 221.113 15.121C221.272 15.2835 221.361 15.502 221.361 15.7295C221.361 15.957 221.272 16.1754 221.113 16.338C220.954 16.5005 220.737 16.5943 220.51 16.5991Z" fill="#3F3D56"/>
<path d="M209.91 8.39575H197.403C197.156 8.40066 196.92 8.50257 196.746 8.67963C196.572 8.85668 196.475 9.09474 196.475 9.34269C196.475 9.59064 196.572 9.82869 196.746 10.0057C196.92 10.1828 197.156 10.2847 197.403 10.2896H209.91C210.157 10.2847 210.394 10.1828 210.567 10.0057C210.741 9.82869 210.838 9.59064 210.838 9.34269C210.838 9.09474 210.741 8.85668 210.567 8.67963C210.394 8.50257 210.157 8.40066 209.91 8.39575Z" fill="#3F3D56"/>
<path d="M209.91 4.84595H197.403C197.156 4.85085 196.92 4.95278 196.746 5.12983C196.572 5.30688 196.475 5.54494 196.475 5.79288C196.475 6.04083 196.572 6.27889 196.746 6.45595C196.92 6.633 197.156 6.73491 197.403 6.73982H209.91C210.157 6.73491 210.394 6.633 210.567 6.45595C210.741 6.27889 210.838 6.04083 210.838 5.79288C210.838 5.54494 210.741 5.30688 210.567 5.12983C210.394 4.95278 210.157 4.85085 209.91 4.84595Z" fill="#3F3D56"/>
<path d="M209.91 1.29126H197.404C197.156 1.2962 196.92 1.39813 196.746 1.57518C196.573 1.75223 196.476 1.99027 196.476 2.2382C196.476 2.48612 196.573 2.72417 196.746 2.90121C196.92 3.07826 197.156 3.1802 197.404 3.18513H209.91C210.158 3.1802 210.394 3.07826 210.567 2.90121C210.741 2.72417 210.838 2.48612 210.838 2.2382C210.838 1.99027 210.741 1.75223 210.567 1.57518C210.394 1.39813 210.158 1.2962 209.91 1.29126Z" fill="#3F3D56"/>
<path d="M51.9299 10.4199C54.7445 10.4199 57.0262 8.08731 57.0262 5.20994C57.0262 2.33257 54.7445 0 51.9299 0C49.1152 0 46.8335 2.33257 46.8335 5.20994C46.8335 8.08731 49.1152 10.4199 51.9299 10.4199Z" fill="#3F3D56"/>
<path d="M34.3244 10.4199C37.139 10.4199 39.4208 8.08731 39.4208 5.20994C39.4208 2.33257 37.139 0 34.3244 0C31.5097 0 29.228 2.33257 29.228 5.20994C29.228 8.08731 31.5097 10.4199 34.3244 10.4199Z" fill="#3F3D56"/>
<path d="M16.7189 10.4199C19.5336 10.4199 21.8153 8.08731 21.8153 5.20994C21.8153 2.33257 19.5336 0 16.7189 0C13.9043 0 11.6226 2.33257 11.6226 5.20994C11.6226 8.08731 13.9043 10.4199 16.7189 10.4199Z" fill="#3F3D56"/>
</g>
<defs>
<clipPath id="clip0_1030_15916">
<rect width="288.035" height="250" fill="white" transform="translate(0.982422)"/>
</clipPath>
</defs>
</svg>
