<svg width="278" height="270" viewBox="0 0 278 270" fill="none" xmlns="http://www.w3.org/2000/svg">
<g clip-path="url(#clip0_1030_15459)">
<path d="M176.298 60.7217H101.765C100.067 60.7238 98.4384 61.3994 97.2374 62.6004C96.0364 63.8014 95.3608 65.4297 95.3587 67.1282V232.778L94.5045 233.039L76.2204 238.638C75.3539 238.902 74.4179 238.812 73.618 238.386C72.8181 237.961 72.2196 237.236 71.9538 236.37L17.5671 58.7187C17.3024 57.8521 17.3926 56.9159 17.8179 56.1159C18.2431 55.3158 18.9686 54.7173 19.835 54.452L48.0107 45.8246L129.693 20.8223L157.869 12.1949C158.297 12.0629 158.748 12.0168 159.195 12.0592C159.641 12.1016 160.075 12.2316 160.471 12.4419C160.868 12.6521 161.219 12.9385 161.504 13.2845C161.79 13.6305 162.004 14.0295 162.135 14.4585L176.037 59.8675L176.298 60.7217Z" fill="#35383F"/>
<path d="M192.562 59.8684L175.807 5.14005C175.528 4.22818 175.072 3.38017 174.466 2.64448C173.859 1.90879 173.113 1.29985 172.271 0.852449C171.429 0.405046 170.507 0.127947 169.558 0.036997C168.609 -0.053953 167.651 0.0430284 166.739 0.322389L127.126 12.4477L45.448 37.4543L5.83467 49.5838C3.99444 50.1489 2.4536 51.421 1.55034 53.121C0.647093 54.821 0.455229 56.8099 1.01688 58.6511L58.2822 245.69C58.7384 247.176 59.659 248.477 60.9089 249.402C62.1588 250.327 63.6721 250.827 65.2269 250.828C65.9465 250.828 66.662 250.72 67.3494 250.508L94.5043 242.196L95.3585 241.932V241.039L94.5043 241.299L67.0975 249.692C65.4732 250.187 63.7188 250.018 62.2191 249.221C60.7195 248.424 59.597 247.065 59.098 245.442L1.83708 58.3992C1.58983 57.5949 1.50365 56.7497 1.58349 55.9121C1.66333 55.0745 1.9076 54.2609 2.30233 53.5178C2.69706 52.7747 3.2345 52.1168 3.88386 51.5818C4.53322 51.0467 5.28174 50.645 6.08658 50.3996L45.6999 38.27L127.378 13.2677L166.991 1.13815C167.602 0.951854 168.237 0.856863 168.875 0.856268C170.245 0.859343 171.577 1.30094 172.678 2.11639C173.779 2.93183 174.589 4.07827 174.991 5.38778L191.669 59.8684L191.934 60.7226H192.822L192.562 59.8684Z" fill="#3F3D56"/>
<path d="M53.0951 54.5919C52.2719 54.5913 51.4706 54.327 50.8087 53.8376C50.1468 53.3482 49.6591 52.6596 49.4172 51.8727L43.9161 33.904C43.7682 33.4213 43.7169 32.9142 43.7651 32.4117C43.8133 31.9092 43.9599 31.4212 44.1968 30.9754C44.4336 30.5296 44.7559 30.1348 45.1453 29.8136C45.5348 29.4923 45.9836 29.251 46.4663 29.1033L121.609 6.09819C122.584 5.80073 123.637 5.90218 124.537 6.38028C125.437 6.85837 126.111 7.67404 126.41 8.64827L131.912 26.6172C132.209 27.592 132.107 28.6449 131.629 29.545C131.151 30.445 130.336 31.1186 129.361 31.4181L54.2181 54.4232C53.8542 54.5349 53.4757 54.5918 53.0951 54.5919Z" fill="#FF575C"/>
<path d="M81.9126 19.2001C86.6302 19.2001 90.4545 15.3758 90.4545 10.6582C90.4545 5.94057 86.6302 2.11621 81.9126 2.11621C77.195 2.11621 73.3706 5.94057 73.3706 10.6582C73.3706 15.3758 77.195 19.2001 81.9126 19.2001Z" fill="#FF575C"/>
<path d="M81.9124 16.0671C84.8998 16.0671 87.3215 13.6454 87.3215 10.6581C87.3215 7.67073 84.8998 5.24902 81.9124 5.24902C78.9251 5.24902 76.5034 7.67073 76.5034 10.6581C76.5034 13.6454 78.9251 16.0671 81.9124 16.0671Z" fill="#35383F"/>
<path d="M258.083 248.645H113.724C112.762 248.644 111.839 248.261 111.158 247.581C110.478 246.9 110.095 245.978 110.094 245.015V72.0405C110.095 71.078 110.478 70.1552 111.158 69.4746C111.839 68.7941 112.762 68.4112 113.724 68.4102H258.083C259.046 68.4113 259.968 68.7941 260.649 69.4747C261.329 70.1553 261.712 71.078 261.713 72.0405V245.015C261.712 245.978 261.329 246.9 260.649 247.581C259.968 248.261 259.046 248.644 258.083 248.645Z" fill="#35383F"/>
<path d="M191.669 59.8682H101.765C99.8402 59.8709 97.9951 60.6367 96.634 61.9978C95.273 63.3588 94.5071 65.204 94.5044 67.1288V241.299L95.3586 241.039V67.1288C95.3607 65.4304 96.0363 63.8021 97.2373 62.6011C98.4383 61.4001 100.067 60.7244 101.765 60.7224H191.934L191.669 59.8682ZM270.042 59.8682H101.765C99.8402 59.8709 97.9951 60.6367 96.634 61.9978C95.273 63.3588 94.5071 65.204 94.5044 67.1288V262.74C94.5071 264.664 95.273 266.51 96.634 267.871C97.9951 269.232 99.8402 269.998 101.765 270H270.042C271.966 269.998 273.812 269.232 275.173 267.871C276.534 266.51 277.3 264.664 277.302 262.74V67.1288C277.3 65.204 276.534 63.3588 275.173 61.9978C273.812 60.6367 271.966 59.8709 270.042 59.8682ZM276.448 262.74C276.446 264.438 275.77 266.066 274.569 267.267C273.368 268.468 271.74 269.144 270.042 269.146H101.765C100.067 269.144 98.4383 268.468 97.2373 267.267C96.0363 266.066 95.3607 264.438 95.3586 262.74V67.1288C95.3607 65.4304 96.0363 63.8021 97.2373 62.6011C98.4383 61.4001 100.067 60.7244 101.765 60.7224H270.042C271.74 60.7244 273.368 61.4001 274.569 62.6011C275.77 63.8021 276.446 65.4304 276.448 67.1288V262.74Z" fill="#3F3D56"/>
<path d="M225.196 78.6597H146.61C145.591 78.6586 144.614 78.2532 143.894 77.5326C143.173 76.812 142.768 75.835 142.767 74.8159V56.0236C142.768 55.0045 143.173 54.0274 143.894 53.3068C144.614 52.5862 145.591 52.1808 146.61 52.1797H225.196C226.216 52.1808 227.193 52.5862 227.913 53.3068C228.634 54.0274 229.039 55.0045 229.04 56.0236V74.8159C229.039 75.835 228.634 76.812 227.913 77.5326C227.193 78.2532 226.216 78.6586 225.196 78.6597Z" fill="#FF575C"/>
<path d="M185.903 53.4618C190.621 53.4618 194.445 49.6375 194.445 44.9199C194.445 40.2023 190.621 36.3779 185.903 36.3779C181.186 36.3779 177.361 40.2023 177.361 44.9199C177.361 49.6375 181.186 53.4618 185.903 53.4618Z" fill="#FF575C"/>
<path d="M185.904 50.1225C188.777 50.1225 191.106 47.7931 191.106 44.9196C191.106 42.0462 188.777 39.7168 185.904 39.7168C183.03 39.7168 180.701 42.0462 180.701 44.9196C180.701 47.7931 183.03 50.1225 185.904 50.1225Z" fill="#35383F"/>
</g>
<defs>
<clipPath id="clip0_1030_15459">
<rect width="276.604" height="270" fill="white" transform="translate(0.698242)"/>
</clipPath>
</defs>
</svg>
