<svg width="186" height="180" viewBox="0 0 186 180" fill="none" xmlns="http://www.w3.org/2000/svg">
<circle cx="95.5002" cy="90.5" r="70.5" fill="url(#paint0_linear_1737_3510)"/>
<circle cx="178.467" cy="27.5" r="7.5" fill="#FF9A9D"/>
<circle cx="20.0334" cy="10" r="10" fill="#FF9A9D"/>
<circle cx="10.0334" cy="133" r="5" fill="#FF9A9D"/>
<circle cx="165.533" cy="160.5" r="2.5" fill="#FF9A9D"/>
<path fill-rule="evenodd" clip-rule="evenodd" d="M84.8548 65.9172H106.169C114.502 65.9172 120.083 71.7681 120.083 80.4706V100.558C120.083 109.233 114.502 115.084 106.169 115.084H84.8548C76.5211 115.084 70.9161 109.233 70.9161 100.558V80.4706C70.9161 71.7681 76.5211 65.9172 84.8548 65.9172ZM94.098 97.851L105.775 86.1739C106.611 85.338 106.611 83.986 105.775 83.1255C104.939 82.2897 103.563 82.2897 102.727 83.1255L92.5739 93.2785L88.2718 88.9764C87.4359 88.1405 86.0593 88.1405 85.2234 88.9764C84.3876 89.8122 84.3876 91.1643 85.2234 92.0247L91.0743 97.851C91.4922 98.2689 92.033 98.4655 92.5739 98.4655C93.1393 98.4655 93.6801 98.2689 94.098 97.851Z" fill="white"/>
<circle cx="106.533" cy="4.5" r="2.5" fill="#FF9A9D"/>
<circle cx="62.5334" cy="176.5" r="3.5" fill="#FF9A9D"/>
<circle cx="122.033" cy="171" r="1" fill="#FF9A9D"/>
<circle cx="170.533" cy="110.5" r="2.5" fill="#FF9A9D"/>
<circle cx="1.03345" cy="75" r="1" fill="#FF9A9D"/>
<defs>
<linearGradient id="paint0_linear_1737_3510" x1="166" y1="161" x2="-1.7771" y2="112.355" gradientUnits="userSpaceOnUse">
<stop stop-color="#FF575C"/>
<stop offset="1" stop-color="#FF8285"/>
</linearGradient>
</defs>
</svg>
