<svg width="292" height="250" viewBox="0 0 292 250" fill="none" xmlns="http://www.w3.org/2000/svg">
<g clip-path="url(#clip0_1027_8816)">
<path d="M228.031 40.3093H208.198V209.402C208.198 212.055 207.675 214.682 206.66 217.133C205.645 219.584 204.157 221.811 202.281 223.687C200.405 225.563 198.178 227.051 195.726 228.067C193.275 229.082 190.648 229.604 187.995 229.604H36.3593V229.798C36.3593 232.451 36.8818 235.078 37.8971 237.529C38.9124 239.98 40.4005 242.207 42.2764 244.083C44.1524 245.959 46.3795 247.447 48.8306 248.462C51.2816 249.477 53.9087 250 56.5617 250H228.031C230.684 250 233.311 249.477 235.762 248.462C238.214 247.447 240.441 245.959 242.317 244.083C244.193 242.207 245.681 239.98 246.696 237.529C247.711 235.078 248.234 232.451 248.234 229.798V60.5117C248.234 57.8587 247.711 55.2316 246.696 52.7806C245.681 50.3295 244.193 48.1024 242.317 46.2264C240.441 44.3505 238.214 42.8624 235.762 41.8471C233.311 40.8319 230.684 40.3093 228.031 40.3093Z" fill="#F2F2F2"/>
<path d="M203.489 22.9633H8.38546C3.7543 22.9633 0 26.7176 0 31.3487V224.269C0 228.9 3.7543 232.654 8.38546 232.654H203.489C208.12 232.654 211.874 228.9 211.874 224.269V31.3487C211.874 26.7176 208.12 22.9633 203.489 22.9633Z" fill="#F2F2F2"/>
<path d="M20.2025 27.1178C15.9464 27.1178 11.8646 28.8085 8.85503 31.8181C5.8455 34.8276 4.15476 38.9094 4.15475 43.1655V212.452C4.15475 216.708 5.84549 220.79 8.85503 223.799C11.8646 226.809 15.9464 228.499 20.2025 228.499H129.639C172.762 228.499 207.72 193.541 207.72 150.418V43.1655C207.72 38.9094 206.029 34.8276 203.019 31.8181C200.01 28.8085 195.928 27.1178 191.672 27.1178H20.2025Z" fill="white"/>
<path d="M123.728 198.425L123.578 198.237C123.145 195.453 123.728 198.425 123.728 198.425Z" fill="#2F2E41"/>
<path d="M131.41 228.46H89.3955C86.1313 220.345 83.8655 214.542 83.8655 214.542C83.8655 214.542 83.3153 220.226 82.5302 228.46H44.5466C44.1911 206.085 43.6934 183.112 43.5296 175.816L116.437 177.44L123.688 186.636C123.713 186.79 123.738 186.959 123.769 187.15C124.062 189.019 128.01 209.076 131.41 228.46Z" fill="#2F2E41"/>
<path d="M216.511 140.726C215.635 140.969 214.716 141.019 213.818 140.872C212.921 140.724 212.066 140.384 211.313 139.874C210.56 139.364 209.926 138.696 209.457 137.918C208.987 137.139 208.692 136.267 208.592 135.363L178.628 126.314L179.094 117.411L214.604 128.419C216.138 128.364 217.639 128.874 218.822 129.852C220.005 130.83 220.789 132.208 221.024 133.725C221.259 135.242 220.93 136.793 220.098 138.083C219.266 139.374 217.99 140.314 216.511 140.726V140.726Z" fill="#FFB6B6"/>
<path d="M115.629 94.7992C112.595 92.2673 117.038 79.7181 115.84 76.0807C115.768 75.8606 115.7 75.6397 115.635 75.4182C115.5 74.9488 115.53 74.447 115.721 73.9973L126.983 68.7001C129.918 69.899 132.621 71.5988 134.974 73.7236L152.372 93.5941L169.655 109.204L177.239 112.585L202.37 123.794L202.11 124.545L202.108 124.547L199.345 132.57L199.345 132.574L204.871 136.427L186.78 133.701L174.815 128.766L163.294 124.015C146.284 113.777 118.297 108.471 115.629 94.7992Z" fill="#FF575C"/>
<path d="M195.812 186.884C195.48 187.035 195.109 187.081 194.751 187.014C194.392 186.948 194.062 186.772 193.806 186.512C193.551 186.252 193.381 185.92 193.32 185.56C193.26 185.2 193.311 184.831 193.468 184.501C193.443 184.319 193.425 184.188 193.4 184.006C193.371 183.976 193.342 183.946 193.312 183.916C190.339 180.9 185.196 182.99 185.143 187.225C185.097 190.984 184.687 194.895 185.633 198.471C186.052 200.051 186.742 201.546 187.672 202.891C181.782 197.295 177.163 190.498 174.131 182.96C173.371 181.068 172.719 179.135 172.176 177.17C171.732 175.558 171.359 173.931 171.059 172.287C169.438 163.366 169.957 154.187 172.573 145.505C174.559 143.099 175.76 140.143 176.014 137.033C176.109 135.914 176.041 134.787 175.813 133.688C175.542 133.84 172.997 129.792 173.106 129.437C172.464 128.991 171.628 128.976 170.954 128.559C167.604 126.487 164.82 128.199 164.861 132.823C162.201 135.843 163.287 138.647 166.41 140.512C168.396 141.698 169.501 143.937 171.376 145.308C171.319 145.505 171.255 145.7 171.198 145.898C170.156 149.521 169.473 153.237 169.157 156.994C168.211 153.347 165.88 149.431 163.683 147.185C161.181 144.626 157.76 142.997 154.597 141.185C150.797 139.009 146.182 142.473 147.357 146.691C147.368 146.732 147.38 146.773 147.391 146.813C147.774 146.864 148.154 146.929 148.532 147.006C149.007 147.107 149.442 147.349 149.778 147.7C150.114 148.051 150.336 148.496 150.415 148.976C150.494 149.456 150.426 149.948 150.22 150.389C150.015 150.83 149.681 151.198 149.262 151.445L149.219 151.471C149.781 152.55 150.424 153.586 151.143 154.568C152.624 166.066 159.961 167.53 168.334 164.372C168.555 164.393 168.771 164.415 168.991 164.431C169.205 169.532 170.081 174.583 171.598 179.458C172.502 182.33 173.636 185.125 174.99 187.815L174.937 187.722C173.094 184.866 170.322 182.734 167.089 181.685C162.305 180.171 156.784 181.12 151.948 180.299C149.621 179.905 147.818 182.343 149.013 184.379C149.032 184.412 149.051 184.444 149.07 184.477C149.743 184.48 150.416 184.526 151.083 184.613C151.466 184.664 151.846 184.729 152.224 184.807C152.7 184.907 153.134 185.149 153.47 185.5C153.806 185.852 154.028 186.296 154.107 186.776C154.186 187.256 154.118 187.748 153.913 188.189C153.707 188.63 153.373 188.998 152.955 189.245L152.912 189.271C152.881 189.289 152.854 189.305 152.823 189.323C154.759 191.288 157.018 192.905 159.502 194.104C164.832 202.524 172.412 200.487 179.09 194.737L179.095 194.735C181.423 198.085 184.093 201.183 187.061 203.981L200.176 198.725C200.164 198.561 200.146 198.393 200.13 198.231C198.947 198.793 197.699 199.209 196.415 199.469C196.909 197.885 197.4 196.291 197.895 194.708C197.907 194.677 197.918 194.645 197.928 194.613C198.176 193.804 198.431 192.998 198.68 192.189L198.68 192.188C197.956 190.304 196.992 188.522 195.812 186.884L195.812 186.884Z" fill="#F2F2F2"/>
<path d="M130.773 71.0938L130.766 71.0808C130.534 70.6506 130.161 70.3134 129.71 70.1261C125.097 66.547 120.047 64.9154 114.378 66.0313C113.45 63.2219 112.585 63.2219 112.585 63.2219L100.291 59.1615L98.5222 48.3599L68.2307 47.3346L65.4777 60.8139C65.4777 60.8139 48.5463 63.849 48.5463 66.0438C48.5463 68.2386 51.3682 68.2386 48.5463 68.2386C45.7244 68.2386 44.9688 65.7303 42.5263 68.2386C42.317 68.4494 42.0962 68.6483 41.8647 68.8344C41.8365 68.8594 41.8051 68.8814 41.7769 68.9065C39.0165 71.0777 36.8472 73.909 35.4691 77.1392C34.091 80.3695 33.5483 83.8947 33.8913 87.3899L39.0992 139.197L44.6584 194.478L120.737 197.645L125.832 150.604L131.015 72.3356C131.061 71.9068 130.977 71.474 130.773 71.0938Z" fill="#FF575C"/>
<path d="M5.88473 210.022C6.31909 211.115 6.75743 211.916 7.19967 212.311L154.747 212.625C155.19 212.229 155.628 211.428 156.062 210.336C161.223 197.353 151.488 183.275 137.517 183.248L24.4378 183.033C10.4859 183.007 0.731097 197.057 5.88473 210.022Z" fill="white"/>
<path d="M154.867 212.939L154.747 212.938L7.07955 212.625L6.9906 212.545C6.53069 212.133 6.07369 211.346 5.59342 210.138C4.37195 207.118 3.92142 203.841 4.28245 200.603C4.64348 197.365 5.80473 194.268 7.66147 191.59C9.5153 188.858 12.01 186.621 14.9277 185.074C17.8455 183.528 21.0974 182.72 24.3995 182.72H24.4384L137.518 182.935C140.832 182.941 144.094 183.758 147.019 185.316C149.944 186.873 152.444 189.123 154.3 191.869C156.154 194.554 157.312 197.658 157.671 200.901C158.029 204.144 157.577 207.426 156.354 210.452C155.873 211.659 155.416 212.447 154.957 212.859L154.867 212.939ZM17.0578 211.969L142.166 211.589C150.997 211.563 157.493 203.038 154.876 194.604C154.629 193.76 154.26 192.957 153.78 192.22C151.982 189.559 149.56 187.379 146.725 185.87C143.889 184.36 140.728 183.568 137.516 183.562L24.4372 183.347H24.3995C22.9636 183.395 21.5477 183.698 20.2178 184.241C12.9135 187.005 8.02924 193.953 7.62311 201.752C7.61794 201.851 7.61278 201.95 7.60765 202.05C7.54388 203.287 7.72441 204.525 8.13893 205.692C8.55346 206.859 9.19385 207.934 10.0236 208.853C10.8533 209.773 11.856 210.521 12.9746 211.053C14.0932 211.586 15.3057 211.892 16.5428 211.956C16.7144 211.965 16.886 211.969 17.0578 211.969L17.0578 211.969Z" fill="#E6E6E6"/>
<path d="M55.8587 195.123C55.9457 195.232 56.0564 195.32 56.1824 195.38C56.3084 195.441 56.4464 195.472 56.5861 195.471H107.487C107.626 195.471 107.764 195.44 107.889 195.38C108.015 195.32 108.125 195.232 108.213 195.124C108.301 195.016 108.363 194.89 108.396 194.755C108.429 194.619 108.431 194.478 108.402 194.342L107.612 190.589C107.58 190.436 107.509 190.294 107.407 190.175C107.305 190.056 107.175 189.964 107.029 189.909C106.923 189.867 106.811 189.846 106.697 189.846H57.3731C57.2593 189.846 57.1466 189.867 57.0407 189.909C56.8945 189.964 56.7645 190.056 56.6626 190.175C56.5608 190.294 56.4903 190.436 56.4575 190.589L55.6674 194.342C55.6393 194.478 55.6418 194.619 55.6749 194.754C55.708 194.889 55.7708 195.015 55.8587 195.123Z" fill="#2F2E41"/>
<path d="M291 175.709H269.355C269.116 175.709 268.887 175.615 268.717 175.447C268.548 175.279 268.452 175.05 268.451 174.811C268.45 174.572 268.543 174.342 268.712 174.172C268.88 174.002 269.108 173.906 269.347 173.905C269.35 173.905 269.353 173.905 269.355 173.905H291C291.239 173.904 291.468 173.998 291.638 174.167C291.808 174.335 291.903 174.564 291.905 174.803C291.906 175.042 291.812 175.271 291.644 175.441C291.475 175.611 291.247 175.707 291.008 175.709C291.005 175.709 291.002 175.709 291 175.709Z" fill="#FF575C"/>
<path d="M271.235 166.636C269.619 159.849 269.889 153.165 272.656 146.615C272.685 146.21 272.874 145.833 273.181 145.567C273.488 145.301 273.887 145.167 274.293 145.195L289.413 146.268C289.818 146.297 290.195 146.486 290.461 146.793C290.728 147.1 290.861 147.5 290.833 147.905L289.412 167.926C289.383 168.331 289.194 168.708 288.888 168.975C288.581 169.241 288.181 169.374 287.775 169.346L272.655 168.273C272.25 168.244 271.873 168.055 271.607 167.748C271.341 167.442 271.207 167.042 271.235 166.636Z" fill="#F2F2F2"/>
<path d="M272.824 160.671C271.531 157.327 272.358 152.727 273.737 147.8C273.765 147.421 273.942 147.068 274.229 146.818C274.516 146.569 274.891 146.444 275.27 146.47L288.265 147.392C288.645 147.42 288.998 147.596 289.247 147.884C289.496 148.171 289.622 148.546 289.595 148.925L288.331 166.741C288.303 167.121 288.127 167.474 287.839 167.723C287.552 167.972 287.177 168.098 286.798 168.071L278.748 167.5C277.058 167.378 275.485 166.591 274.374 165.311C273.264 164.03 272.706 162.362 272.824 160.671Z" fill="white"/>
<path d="M281.307 157.275C281.48 157.194 281.643 157.095 281.795 156.979C282.198 156.647 282.495 156.205 282.652 155.706C282.809 155.208 282.818 154.675 282.677 154.172C282.068 151.932 279.388 151.919 277.538 152.188C276.942 152.275 277.195 153.182 277.788 153.095C279.035 152.913 280.992 152.767 281.662 154.128C281.815 154.448 281.869 154.806 281.818 155.157C281.767 155.508 281.613 155.836 281.376 156.099C281.092 156.384 280.718 156.562 280.317 156.602C279.929 156.433 279.508 156.355 279.085 156.372C278.65 156.393 278.407 157.027 278.848 157.249C279.239 157.443 279.669 157.545 280.105 157.545C280.467 157.72 280.769 157.997 280.974 158.343C281.178 158.689 281.276 159.087 281.255 159.489C281.213 159.762 281.118 160.025 280.975 160.262C280.832 160.499 280.644 160.705 280.421 160.87C280.198 161.034 279.945 161.152 279.676 161.219C279.408 161.285 279.129 161.298 278.855 161.257L278.843 161.255C278.252 161.136 277.999 162.042 278.593 162.162C279.39 162.312 280.214 162.139 280.883 161.682C281.553 161.225 282.013 160.52 282.163 159.724C282.172 159.68 282.179 159.637 282.185 159.594C282.222 159.166 282.163 158.735 282.011 158.334C281.859 157.932 281.618 157.57 281.307 157.275Z" fill="#FF575C"/>
<path d="M183.443 99.2242C181.827 92.4373 182.096 85.7526 184.863 79.2032C184.893 78.7981 185.081 78.421 185.388 78.1548C185.695 77.8886 186.095 77.755 186.5 77.7833L201.621 78.8562C202.026 78.8854 202.403 79.0741 202.669 79.381C202.935 79.6878 203.069 80.0878 203.041 80.493L201.62 100.514C201.591 100.919 201.402 101.296 201.095 101.562C200.788 101.829 200.388 101.962 199.983 101.934L184.863 100.861C184.458 100.832 184.08 100.643 183.814 100.336C183.548 100.029 183.414 99.6295 183.443 99.2242Z" fill="#F2F2F2"/>
<path d="M185.032 93.2594C183.738 89.9149 184.565 85.3151 185.945 80.388C185.972 80.0086 186.149 79.6554 186.437 79.4061C186.724 79.1568 187.098 79.0317 187.478 79.0582L200.473 79.9802C200.852 80.0076 201.205 80.1843 201.455 80.4717C201.704 80.7591 201.829 81.1337 201.803 81.5132L200.538 99.3292C200.511 99.7087 200.334 100.062 200.047 100.311C199.759 100.56 199.385 100.686 199.005 100.659L190.955 100.088C189.265 99.966 187.692 99.1786 186.582 97.8985C185.471 96.6183 184.914 94.95 185.032 93.2594Z" fill="white"/>
<path d="M194.028 94.1322C193.631 94.064 193.234 93.9958 192.837 93.9276C193.02 93.496 193.126 93.0356 193.149 92.5674C193.337 90.0617 193.356 87.532 193.456 85.0212C193.454 84.9293 193.425 84.8402 193.372 84.7646C193.32 84.6889 193.247 84.63 193.163 84.5948C193.078 84.5597 192.984 84.5498 192.894 84.5665C192.804 84.5831 192.72 84.6255 192.653 84.6886C191.657 85.5143 190.66 86.3399 189.663 87.1656C189.196 87.5521 189.865 88.2143 190.328 87.8307C191.043 87.2381 191.759 86.6455 192.474 86.0528C192.409 87.698 192.343 89.3432 192.277 90.9885C192.246 91.7781 192.342 92.7369 192.019 93.4792C191.974 93.5793 191.917 93.673 191.847 93.7574C191.408 93.6819 190.968 93.6064 190.529 93.5309C190.213 93.4766 189.811 93.7405 189.95 94.1095C190.253 94.9119 191.144 95.1654 191.909 94.8561C191.976 94.8258 192.042 94.7909 192.104 94.7516L193.778 95.0392C194.37 95.141 194.625 94.2347 194.028 94.1322Z" fill="#FF575C"/>
<path d="M34.4259 136.119L41.8758 139.474C38.3735 142.315 33.0401 146.137 27.8164 147.905L19.5169 142.246C16.4253 130.325 18.3192 118.04 22.0347 107.652C24.0932 101.88 26.8231 96.3701 30.168 91.2352C29.8254 87.7401 30.3682 84.2149 31.7463 80.9847C33.1244 77.7545 35.2935 74.9232 38.0536 72.7518C38.085 72.7267 38.1132 72.7048 38.1414 72.6797C40.8906 75.0654 43.1363 77.9755 44.7472 81.2397C46.358 84.5039 47.3016 88.0566 47.5227 91.6899L47.6889 94.4366L48.0212 99.8483L48.8647 113.669L38.8626 129.221L34.4259 136.119Z" fill="#FF575C"/>
<path d="M36.3719 111.106V169.82C36.3725 170.568 36.6699 171.285 37.199 171.815C37.7281 172.344 38.4455 172.641 39.1938 172.642H126.202C126.951 172.641 127.668 172.344 128.197 171.815C128.726 171.285 129.024 170.568 129.024 169.82V111.106C129.022 110.358 128.724 109.642 128.196 109.113C127.667 108.585 126.95 108.288 126.202 108.287H39.1938C38.4462 108.288 37.7294 108.585 37.2005 109.113C36.6716 109.642 36.3736 110.358 36.3719 111.106Z" fill="#3F3D56"/>
<path d="M71.8118 161.122V193.279H94.34V161.122C94.3404 160.891 94.2666 160.666 94.1294 160.479C93.9923 160.293 93.799 160.156 93.5781 160.087C93.4739 160.053 93.3648 160.036 93.2551 160.037H72.8998C72.6118 160.037 72.3354 160.151 72.1313 160.354C71.9273 160.557 71.8124 160.833 71.8118 161.121V161.122ZM80.6036 172.171C80.6096 171.538 80.8656 170.932 81.3159 170.486C81.7663 170.039 82.3746 169.789 83.0085 169.789C83.6424 169.789 84.2507 170.039 84.701 170.486C85.1514 170.932 85.4074 171.538 85.4134 172.171V175.903C85.4101 176.538 85.1553 177.147 84.7047 177.595C84.254 178.044 83.6442 178.295 83.0085 178.295C82.3728 178.295 81.7629 178.044 81.3123 177.595C80.8616 177.147 80.6068 176.538 80.6036 175.903V172.171Z" fill="#2F2E41"/>
<path d="M216.118 136.719C220.88 143.174 229.013 145.958 233.917 152.291C235.057 153.731 235.94 155.356 236.528 157.096C236.986 158.64 237.321 160.218 237.532 161.814C238.041 165.033 238.643 168.463 241.464 170.503C245.178 173.19 250.031 172.532 254.273 171.919C254.395 171.905 254.517 171.938 254.614 172.012C254.711 172.086 254.776 172.195 254.794 172.315C254.812 172.436 254.783 172.559 254.713 172.659C254.642 172.758 254.535 172.827 254.415 172.849C250.517 173.412 246.346 173.964 242.637 172.261C240.958 171.519 239.542 170.285 238.578 168.723C237.785 167.307 237.244 165.764 236.98 164.163C236.657 162.525 236.47 160.862 236.123 159.229C235.776 157.503 235.128 155.851 234.209 154.349C232.197 151.125 229.177 148.694 226.127 146.502C222.298 143.751 218.219 141.15 215.38 137.301C215.021 136.816 215.757 136.23 216.118 136.719L216.118 136.719Z" fill="#3F3D56"/>
<path d="M251.872 178.022L256.228 176.072L258.336 175.129C258.711 174.961 259.088 174.799 259.46 174.625C259.689 174.519 260.138 174.354 260.059 174.036C260.005 173.819 259.714 173.645 259.548 173.522C259.214 173.275 258.874 173.037 258.537 172.794L256.642 171.43L252.724 168.611C252.628 168.535 252.566 168.425 252.549 168.304C252.533 168.183 252.564 168.061 252.637 167.963C252.709 167.864 252.816 167.798 252.937 167.777C253.057 167.757 253.18 167.784 253.281 167.853C255.555 169.49 257.849 171.102 260.105 172.764C260.527 173.016 260.842 173.414 260.99 173.882C261.032 174.153 260.988 174.43 260.864 174.675C260.74 174.919 260.542 175.118 260.298 175.244C259.718 175.566 259.117 175.848 258.498 176.087L256.601 176.936L252.245 178.885C252.131 178.93 252.005 178.928 251.892 178.882C251.78 178.835 251.69 178.746 251.641 178.634C251.593 178.522 251.59 178.395 251.633 178.281C251.676 178.167 251.762 178.074 251.872 178.022H251.872Z" fill="#3F3D56"/>
<path d="M44.2622 140.653C43.8524 141.465 43.2711 142.178 42.5585 142.744C41.846 143.309 41.0191 143.712 40.1352 143.927C39.2513 144.141 38.3313 144.161 37.439 143.984C36.5467 143.808 35.7034 143.44 34.9673 142.906L12.4249 153.633L10.9142 147.315L33.8712 133.787C34.8627 132.615 36.2496 131.847 37.7693 131.629C39.2889 131.411 40.8357 131.758 42.1165 132.605C43.3973 133.451 44.3232 134.738 44.7187 136.221C45.1141 137.704 44.9517 139.281 44.2622 140.653L44.2622 140.653Z" fill="#FFB6B6"/>
<path d="M206.97 131.288H185.326C185.207 131.289 185.09 131.266 184.98 131.221C184.871 131.176 184.771 131.109 184.687 131.026C184.603 130.942 184.536 130.843 184.491 130.734C184.445 130.625 184.421 130.507 184.421 130.389C184.421 130.271 184.444 130.153 184.489 130.044C184.534 129.934 184.6 129.835 184.683 129.751C184.767 129.667 184.866 129.6 184.975 129.554C185.084 129.509 185.202 129.485 185.32 129.485C185.322 129.485 185.324 129.485 185.326 129.485H206.97C207.088 129.484 207.205 129.507 207.315 129.552C207.425 129.597 207.524 129.663 207.608 129.747C207.692 129.83 207.759 129.929 207.805 130.039C207.85 130.148 207.874 130.265 207.874 130.384C207.875 130.502 207.852 130.619 207.807 130.729C207.762 130.838 207.696 130.938 207.612 131.022C207.529 131.106 207.429 131.173 207.32 131.218C207.211 131.264 207.094 131.288 206.975 131.288C206.973 131.288 206.972 131.288 206.97 131.288Z" fill="#E6E6E6"/>
<path d="M228.217 124.025H185.326C185.207 124.026 185.09 124.003 184.98 123.958C184.87 123.913 184.77 123.847 184.686 123.763C184.602 123.68 184.535 123.581 184.49 123.471C184.444 123.362 184.42 123.245 184.42 123.126C184.42 123.007 184.443 122.89 184.488 122.78C184.533 122.671 184.599 122.571 184.683 122.487C184.766 122.403 184.865 122.336 184.975 122.291C185.084 122.245 185.202 122.222 185.32 122.221C185.322 122.221 185.324 122.221 185.326 122.221H228.217C228.336 122.221 228.453 122.244 228.563 122.289C228.673 122.334 228.772 122.4 228.856 122.483C228.94 122.567 229.007 122.666 229.053 122.775C229.099 122.885 229.122 123.002 229.123 123.121C229.123 123.239 229.1 123.356 229.055 123.466C229.01 123.576 228.944 123.675 228.86 123.759C228.777 123.843 228.677 123.91 228.568 123.956C228.458 124.001 228.341 124.025 228.223 124.025C228.221 124.025 228.219 124.025 228.217 124.025Z" fill="#E6E6E6"/>
<path d="M206.97 116.762H185.326C185.207 116.763 185.09 116.74 184.98 116.695C184.87 116.65 184.77 116.584 184.686 116.5C184.602 116.417 184.535 116.318 184.49 116.208C184.444 116.099 184.42 115.982 184.42 115.863C184.42 115.745 184.443 115.627 184.488 115.518C184.533 115.408 184.599 115.308 184.683 115.224C184.766 115.14 184.865 115.073 184.975 115.028C185.084 114.982 185.202 114.959 185.32 114.959C185.322 114.959 185.324 114.959 185.326 114.959H206.97C207.088 114.958 207.206 114.981 207.315 115.026C207.425 115.071 207.525 115.137 207.609 115.22C207.693 115.304 207.76 115.403 207.806 115.512C207.851 115.622 207.875 115.739 207.875 115.858C207.876 115.976 207.853 116.094 207.808 116.203C207.763 116.313 207.696 116.412 207.613 116.496C207.529 116.58 207.43 116.647 207.32 116.693C207.211 116.738 207.094 116.762 206.975 116.762C206.973 116.762 206.972 116.762 206.97 116.762Z" fill="#E6E6E6"/>
<path d="M122.573 118.689C130.233 116.309 138.434 118.883 146.137 116.686C147.908 116.201 149.583 115.415 151.087 114.361C152.37 113.388 153.575 112.316 154.69 111.154C157.007 108.862 159.524 106.456 163.005 106.483C167.589 106.518 171.109 109.923 174.164 112.93C174.596 113.355 175.262 112.69 174.83 112.264C172.022 109.502 168.988 106.587 164.992 105.762C163.199 105.364 161.328 105.52 159.625 106.208C158.148 106.879 156.799 107.802 155.637 108.935C154.406 110.063 153.271 111.292 152.024 112.403C150.721 113.588 149.221 114.535 147.592 115.201C144.06 116.607 140.187 116.776 136.431 116.735C131.717 116.684 126.89 116.363 122.323 117.782C121.746 117.961 121.992 118.87 122.573 118.689H122.573Z" fill="#3F3D56"/>
<path d="M175.844 106.59L178.199 110.742L179.339 112.75C179.541 113.107 179.749 113.462 179.946 113.822C180.068 114.043 180.332 114.441 180.079 114.651C179.858 114.759 179.608 114.798 179.364 114.763C178.949 114.763 178.533 114.754 178.118 114.75L175.783 114.726L170.956 114.677C170.834 114.682 170.719 114.733 170.634 114.821C170.549 114.909 170.502 115.026 170.502 115.148C170.502 115.27 170.549 115.387 170.634 115.475C170.719 115.562 170.834 115.614 170.956 115.618C173.758 115.646 176.562 115.706 179.364 115.703C179.853 115.75 180.342 115.616 180.739 115.327C180.933 115.134 181.062 114.884 181.106 114.613C181.151 114.343 181.11 114.065 180.988 113.819C180.712 113.216 180.394 112.633 180.037 112.075L179.011 110.267L176.657 106.116C176.591 106.012 176.489 105.939 176.37 105.91C176.252 105.881 176.126 105.899 176.021 105.961C175.916 106.022 175.838 106.122 175.805 106.24C175.773 106.357 175.786 106.483 175.844 106.59V106.59Z" fill="#3F3D56"/>
<path d="M199.5 108.245C204.262 101.789 212.395 99.0057 217.299 92.6727C218.439 91.2329 219.323 89.6072 219.91 87.8671C220.368 86.3232 220.703 84.7457 220.914 83.1493C221.423 79.9303 222.025 76.5011 224.846 74.4604C228.56 71.7732 233.413 72.4318 237.656 73.0444C237.777 73.0587 237.899 73.0254 237.996 72.9514C238.093 72.8775 238.158 72.7687 238.176 72.648C238.194 72.5274 238.165 72.4043 238.095 72.3048C238.024 72.2052 237.917 72.137 237.798 72.1145C233.899 71.5516 229.728 71 226.02 72.7028C224.34 73.4444 222.924 74.6781 221.96 76.241C221.167 77.6567 220.627 79.1994 220.362 80.8002C220.039 82.4386 219.852 84.1011 219.505 85.735C219.158 87.4609 218.51 89.1124 217.591 90.6144C215.579 93.8388 212.559 96.2698 209.509 98.4615C205.68 101.213 201.601 103.813 198.762 107.662C198.403 108.148 199.14 108.734 199.5 108.245L199.5 108.245Z" fill="#3F3D56"/>
<path d="M274.382 71.9253H252.738C252.619 71.9258 252.502 71.9029 252.392 71.858C252.282 71.813 252.183 71.7469 252.098 71.6634C252.014 71.5799 251.948 71.4807 251.902 71.3713C251.856 71.262 251.832 71.1447 251.832 71.0262C251.832 70.9076 251.855 70.7902 251.9 70.6806C251.945 70.571 252.011 70.4713 252.095 70.3873C252.178 70.3033 252.278 70.2366 252.387 70.191C252.496 70.1454 252.614 70.1218 252.732 70.1216C252.734 70.1216 252.736 70.1216 252.738 70.1216H274.382C274.5 70.1211 274.618 70.144 274.727 70.1889C274.837 70.2338 274.937 70.2999 275.021 70.3834C275.105 70.4669 275.172 70.5662 275.218 70.6756C275.263 70.7849 275.287 70.9022 275.287 71.0207C275.288 71.1392 275.265 71.2567 275.22 71.3663C275.175 71.4759 275.108 71.5756 275.025 71.6596C274.941 71.7436 274.842 71.8103 274.732 71.8559C274.623 71.9015 274.506 71.9251 274.387 71.9253C274.385 71.9253 274.384 71.9253 274.382 71.9253Z" fill="#FF575C"/>
<path d="M35.5755 108.069L19.7133 140.48L26.4169 137.442L31.0824 135.325L33.4215 144.211C33.4215 144.211 31.8726 145.716 29.4301 147.694C25.9278 150.535 20.5944 154.357 15.3707 156.126C11.2821 157.512 7.26559 157.64 4.24929 155.056C-1.47603 150.153 4.12074 130.678 9.52938 115.851C13.1508 105.921 16.6845 98.0791 16.6845 98.0791C16.6845 87.6067 37.008 72.5483 40.7799 70.4883C42.934 69.3156 43.5296 71.0235 43.5296 71.0235L31.7095 88.3279L35.2432 102.657L36.2434 106.705L35.5755 108.069Z" fill="#FF575C"/>
<path d="M235.254 66.9419L239.61 68.8916L241.718 69.835C242.093 70.0027 242.47 70.165 242.842 70.3382C243.071 70.4446 243.52 70.6091 243.441 70.9276C243.387 71.1445 243.096 71.3191 242.93 71.4416C242.596 71.6882 242.256 71.9267 241.919 72.1692L240.024 73.5335L236.106 76.353C236.01 76.4286 235.948 76.5385 235.931 76.6593C235.915 76.7802 235.946 76.9027 236.019 77.001C236.091 77.0992 236.199 77.1656 236.319 77.1861C236.439 77.2066 236.562 77.1796 236.663 77.1109C238.937 75.4741 241.231 73.8611 243.487 72.1994C243.909 71.9475 244.224 71.55 244.372 71.0819C244.414 70.8109 244.37 70.5335 244.246 70.289C244.122 70.0445 243.924 69.8452 243.68 69.7193C243.101 69.3972 242.499 69.1158 241.881 68.8771L239.983 68.028L235.627 66.0783C235.514 66.0337 235.387 66.035 235.274 66.0819C235.162 66.1288 235.072 66.2177 235.023 66.3298C234.975 66.4418 234.972 66.5683 235.015 66.6825C235.058 66.7967 235.144 66.8897 235.254 66.9419L235.254 66.9419Z" fill="#3F3D56"/>
<path d="M254.304 59.404C252.688 52.6171 252.957 45.9324 255.724 39.3831C255.754 38.9779 255.942 38.6008 256.249 38.3346C256.556 38.0684 256.956 37.9348 257.361 37.9631L272.482 39.036C272.887 39.0652 273.264 39.2539 273.53 39.5608C273.796 39.8677 273.93 40.2676 273.902 40.6728L272.481 60.6938C272.452 61.099 272.263 61.4761 271.956 61.7423C271.649 62.0085 271.249 62.1421 270.844 62.1138L255.724 61.0409C255.319 61.0117 254.942 60.823 254.675 60.5161C254.409 60.2092 254.276 59.8093 254.304 59.404Z" fill="#F2F2F2"/>
<path d="M255.893 53.4393C254.6 50.0948 255.426 45.495 256.806 40.5679C256.833 40.1885 257.01 39.8354 257.298 39.586C257.585 39.3367 257.96 39.2116 258.339 39.2381L271.334 40.1602C271.713 40.1875 272.066 40.3643 272.316 40.6517C272.565 40.9391 272.69 41.3136 272.664 41.6932L271.399 59.5091C271.372 59.8886 271.195 60.2417 270.908 60.491C270.62 60.7404 270.246 60.8655 269.866 60.839L261.816 60.2678C260.126 60.1459 258.553 59.3585 257.443 58.0784C256.332 56.7982 255.775 55.1299 255.893 53.4393Z" fill="white"/>
<path d="M263.884 44.4736C262.552 44.0113 261.07 45.0648 260.919 46.4306C260.748 47.9787 262.413 49.2008 263.855 48.78C264.435 48.6108 264.188 47.7028 263.605 47.873C262.548 48.1814 261.421 47.0404 262.028 46.0203C262.166 45.7741 262.376 45.5757 262.63 45.4517C262.883 45.3276 263.169 45.2837 263.448 45.3259C263.685 45.3915 263.903 45.5118 264.085 45.677C264.267 45.8422 264.408 46.0478 264.496 46.2773C265.015 47.4457 264.398 48.6319 263.582 49.4811C263.116 49.9655 262.57 50.3419 262.068 50.7833C261.823 50.9677 261.621 51.2012 261.472 51.4688C261.324 51.7363 261.234 52.032 261.207 52.3366C261.22 52.6793 261.326 53.0118 261.515 53.2982C261.704 53.5846 261.967 53.814 262.276 53.9616C263.078 54.374 263.991 54.2428 264.844 54.1056C265.44 54.0097 265.187 53.1031 264.594 53.1986C263.847 53.3186 262.73 53.5005 262.257 52.7225C261.853 52.0562 262.687 51.4712 263.141 51.1168C264.284 50.226 265.439 49.0757 265.61 47.5612C265.751 46.3204 265.12 44.9028 263.884 44.4736Z" fill="#FF575C"/>
<path d="M84.9598 46.1308C95.7872 46.1308 104.565 37.3534 104.565 26.5259C104.565 15.6984 95.7872 6.92102 84.9598 6.92102C74.1323 6.92102 65.3549 15.6984 65.3549 26.5259C65.3549 37.3534 74.1323 46.1308 84.9598 46.1308Z" fill="#FFB6B6"/>
<path d="M108.433 23.0962C106.32 23.7524 104.282 24.1392 102.907 22.4055C101.533 20.6717 101.892 18.6893 99.8476 17.8535C98.1967 17.1766 96.2903 17.4667 94.6257 18.0953C94.3287 18.2058 94.0385 18.3302 93.7554 18.4545C93.5965 18.3163 93.4376 18.1851 93.2649 18.0608C91.9654 17.1366 90.361 16.746 88.7821 16.9694C89.9362 17.5269 90.8858 18.433 91.4967 19.5597C90.9303 19.8428 90.3217 20.0545 89.7768 20.3678C82.2897 24.6724 73.9634 26.406 74.6429 19.2212C76.9085 25.1891 75.1472 27.3165 71.8248 32.7664L71.6935 33.0841C72.0251 31.6543 69.694 31.5865 67.6804 32.0756C66.1931 32.4369 67.1556 35.904 69.0619 38.2922C64.8001 31.8753 58.4169 22.078 63.9367 17.1628C64.7507 16.4379 65.2616 15.4151 65.4079 12.7974C65.4946 11.2454 68.1362 10.8565 69.5315 11.5472C69.7335 9.21352 70.5491 6.97477 71.8956 5.05809C73.2421 3.14141 75.0717 1.615 77.1986 0.633705C81.4673 -1.26579 85.8086 1.6562 90.4468 2.22237C93.0202 2.5365 94.9718 3.57297 95.0746 6.85716C95.143 9.04423 98.4385 9.82729 100.594 10.2141C101.961 10.4559 103.501 10.3108 104.593 11.1742C105.857 12.1758 105.871 13.9371 105.864 15.6294C104.627 15.5941 103.408 15.9284 102.362 16.5895C103.642 16.6217 104.88 17.0568 105.898 17.8328C105.918 17.8449 105.936 17.8588 105.954 17.8743C106.327 20.7201 106.175 21.3211 108.433 23.0962Z" fill="#2F2E41"/>
</g>
<defs>
<clipPath id="clip0_1027_8816">
<rect width="291.906" height="250" fill="white"/>
</clipPath>
</defs>
</svg>
