<svg width="311" height="280" viewBox="0 0 311 280" fill="none" xmlns="http://www.w3.org/2000/svg">
<g clip-path="url(#clip0_1027_8886)">
<path d="M52.7039 274.165L58.1099 274.164L60.6815 253.313L52.703 253.313L52.7039 274.165Z" fill="#A0616A"/>
<path d="M51.325 272.4L61.971 272.399H61.9715C62.8624 272.399 63.7447 272.575 64.5678 272.916C65.391 273.256 66.1389 273.756 66.7689 274.386C67.3989 275.016 67.8987 275.764 68.2396 276.587C68.5806 277.41 68.7561 278.293 68.7561 279.184V279.404L51.3253 279.405L51.325 272.4Z" fill="#2F2E41"/>
<path d="M22.2787 274.165L27.6847 274.164L30.2563 253.313L22.2778 253.313L22.2787 274.165Z" fill="#A0616A"/>
<path d="M20.8997 272.4L31.5457 272.399H31.5462C32.4371 272.399 33.3194 272.575 34.1425 272.916C34.9657 273.256 35.7136 273.756 36.3436 274.386C36.9736 275.016 37.4734 275.764 37.8143 276.587C38.1553 277.41 38.3308 278.293 38.3308 279.184V279.404L20.9 279.405L20.8997 272.4Z" fill="#2F2E41"/>
<path d="M84.5149 280H0.735378C0.618433 280 0.506276 279.954 0.423583 279.871C0.34089 279.788 0.294434 279.676 0.294434 279.559C0.294434 279.442 0.34089 279.33 0.423583 279.247C0.506276 279.165 0.618433 279.118 0.735378 279.118H84.5149C84.6319 279.118 84.744 279.165 84.8267 279.247C84.9094 279.33 84.9559 279.442 84.9559 279.559C84.9559 279.676 84.9094 279.788 84.8267 279.871C84.744 279.954 84.6319 280 84.5149 280Z" fill="#CCCCCC"/>
<path d="M292.402 268.828L287.748 270.871L277.655 253.893L284.523 250.878L292.402 268.828Z" fill="#FFB8B8"/>
<path d="M295.569 272.818L280.564 279.405L280.48 279.215C280.144 278.448 279.961 277.622 279.944 276.785C279.926 275.947 280.074 275.115 280.378 274.334C280.682 273.554 281.137 272.841 281.717 272.236C282.297 271.632 282.99 271.147 283.757 270.811L283.757 270.811L292.922 266.788L295.569 272.818Z" fill="#2F2E41"/>
<path d="M229.925 274.478H224.843L222.425 254.875L229.926 254.875L229.925 274.478Z" fill="#FFB8B8"/>
<path d="M231.221 279.405L214.834 279.404V279.197C214.834 278.359 214.999 277.53 215.319 276.756C215.64 275.982 216.11 275.279 216.702 274.687C217.294 274.094 217.997 273.625 218.771 273.304C219.545 272.984 220.374 272.819 221.212 272.819H221.212L231.221 272.819L231.221 279.405Z" fill="#2F2E41"/>
<path d="M290.436 280H206.657C206.54 280 206.428 279.954 206.345 279.871C206.262 279.788 206.216 279.676 206.216 279.559C206.216 279.442 206.262 279.33 206.345 279.247C206.428 279.165 206.54 279.118 206.657 279.118H290.436C290.553 279.118 290.665 279.165 290.748 279.247C290.831 279.33 290.877 279.442 290.877 279.559C290.877 279.676 290.831 279.788 290.748 279.871C290.665 279.954 290.553 280 290.436 280Z" fill="#CCCCCC"/>
<path d="M192.972 162.709H79.208C75.3502 162.704 71.6515 161.17 68.9236 158.442C66.1957 155.714 64.6612 152.015 64.6569 148.157V14.5512C64.6612 10.6933 66.1957 6.99469 68.9236 4.26676C71.6515 1.53882 75.3502 0.00435785 79.208 0H185.047L207.523 17.9151V148.157C207.519 152.015 205.984 155.714 203.256 158.442C200.528 161.17 196.83 162.704 192.972 162.709Z" fill="#E6E6E6"/>
<path d="M79.2079 4.18896C76.4606 4.19206 73.8268 5.28478 71.8841 7.2274C69.9415 9.17002 68.8488 11.8039 68.8457 14.5512V148.157C68.8488 150.905 69.9415 153.539 71.8841 155.481C73.8268 157.424 76.4606 158.517 79.2079 158.52H192.972C195.719 158.517 198.353 157.424 200.295 155.481C202.238 153.539 203.331 150.905 203.334 148.157V19.9332L183.581 4.18896H79.2079Z" fill="white"/>
<path d="M180.84 124.517H119.05C118.407 124.517 117.791 124.262 117.336 123.807C116.882 123.353 116.626 122.736 116.626 122.094C116.626 121.451 116.882 120.835 117.336 120.38C117.791 119.926 118.407 119.671 119.05 119.671H180.84C181.483 119.671 182.099 119.926 182.554 120.38C183.008 120.835 183.263 121.451 183.263 122.094C183.263 122.736 183.008 123.353 182.554 123.807C182.099 124.262 181.483 124.517 180.84 124.517Z" fill="#CCCCCC"/>
<path d="M170.845 116.339H119.05C118.407 116.339 117.791 116.083 117.336 115.629C116.882 115.175 116.626 114.558 116.626 113.916C116.626 113.273 116.882 112.657 117.336 112.202C117.791 111.748 118.407 111.492 119.05 111.492H170.845C171.487 111.492 172.104 111.748 172.558 112.202C173.013 112.657 173.268 113.273 173.268 113.916C173.268 114.558 173.013 115.175 172.558 115.629C172.104 116.083 171.487 116.339 170.845 116.339Z" fill="#CCCCCC"/>
<path d="M97.4809 126.569C102.211 126.569 106.045 122.735 106.045 118.005C106.045 113.275 102.211 109.44 97.4809 109.44C92.7509 109.44 88.9164 113.275 88.9164 118.005C88.9164 122.735 92.7509 126.569 97.4809 126.569Z" fill="#CCCCCC"/>
<path d="M87.9014 187.742L20.5929 201.93C18.6478 202.337 16.6204 201.957 14.9555 200.872C13.2905 199.786 12.1241 198.085 11.712 196.141L0.161965 141.345C-0.245749 139.4 0.134754 137.372 1.21999 135.707C2.30523 134.042 4.00658 132.876 5.95079 132.464L73.2592 118.276C75.2043 117.869 77.2318 118.249 78.8967 119.334C80.5616 120.42 81.7281 122.121 82.1402 124.065L93.6902 178.861C94.0979 180.806 93.7174 182.834 92.6322 184.499C91.5469 186.164 89.8456 187.33 87.9014 187.742Z" fill="white"/>
<path d="M87.9014 187.742L20.5929 201.93C18.6478 202.337 16.6204 201.957 14.9555 200.872C13.2905 199.786 12.1241 198.085 11.712 196.141L0.161965 141.345C-0.245749 139.4 0.134754 137.372 1.21999 135.707C2.30523 134.042 4.00658 132.876 5.95079 132.464L73.2592 118.276C75.2043 117.869 77.2318 118.249 78.8967 119.334C80.5616 120.42 81.7281 122.121 82.1402 124.065L93.6902 178.861C94.0979 180.806 93.7174 182.834 92.6322 184.499C91.5469 186.164 89.8456 187.33 87.9014 187.742ZM6.13268 133.327C4.41721 133.69 2.91603 134.72 1.95846 136.189C1.0009 137.658 0.665153 139.447 1.02489 141.163L12.5749 195.959C12.9385 197.674 13.9678 199.175 15.4368 200.133C16.9059 201.091 18.6948 201.426 20.4111 201.067L87.7195 186.879C89.4349 186.516 90.9361 185.486 91.8937 184.017C92.8512 182.548 93.187 180.759 92.8273 179.043L81.2772 124.247C80.9136 122.532 79.8844 121.03 78.4153 120.073C76.9463 119.115 75.1574 118.78 73.4411 119.139L6.13268 133.327Z" fill="#3F3D56"/>
<path d="M69.0772 136.344L35.1075 143.504C34.8103 143.573 34.4979 143.527 34.2336 143.374C33.9692 143.222 33.7727 142.975 33.6836 142.683C33.6429 142.531 33.6336 142.372 33.6563 142.216C33.679 142.06 33.7332 141.91 33.8157 141.776C33.8982 141.642 34.0071 141.526 34.1359 141.435C34.2647 141.344 34.4107 141.28 34.5649 141.248L69.1439 133.959C70.4941 134.72 70.0673 136.135 69.0768 136.344L69.0772 136.344Z" fill="#CCCCCC"/>
<path d="M70.3332 142.303L36.3635 149.463C36.0663 149.532 35.7539 149.485 35.4896 149.333C35.2252 149.18 35.0287 148.933 34.9396 148.641C34.8988 148.489 34.8895 148.33 34.9123 148.174C34.935 148.018 34.9892 147.869 35.0717 147.734C35.1541 147.6 35.2631 147.484 35.3919 147.393C35.5207 147.302 35.6667 147.239 35.8208 147.206L70.3999 139.918C71.7501 140.679 71.3233 142.094 70.3328 142.303L70.3332 142.303Z" fill="#CCCCCC"/>
<path d="M29.7352 154.403L19.368 156.589C19.0294 156.66 18.6765 156.593 18.3867 156.404C18.0969 156.216 17.8938 155.919 17.8221 155.581L15.2434 143.347C15.1724 143.008 15.2386 142.655 15.4275 142.365C15.6164 142.076 15.9126 141.873 16.251 141.801L26.6182 139.616C26.9568 139.545 27.3096 139.611 27.5994 139.8C27.8892 139.989 28.0922 140.285 28.164 140.623L30.7428 152.858C30.8138 153.196 30.7476 153.549 30.5587 153.839C30.3698 154.129 30.0736 154.332 29.7352 154.403V154.403Z" fill="#CCCCCC"/>
<path d="M72.806 154.524L20.962 165.451C20.6648 165.52 20.3524 165.474 20.0881 165.321C19.8237 165.169 19.6272 164.922 19.5381 164.63C19.4974 164.478 19.4881 164.319 19.5108 164.163C19.5335 164.007 19.5877 163.857 19.6702 163.723C19.7527 163.589 19.8616 163.473 19.9904 163.382C20.1192 163.291 20.2652 163.228 20.4194 163.195L72.8731 152.139C74.2232 152.9 73.7965 154.315 72.806 154.524Z" fill="#CCCCCC"/>
<path d="M74.0622 160.484L22.2183 171.412C21.921 171.481 21.6086 171.434 21.3443 171.282C21.08 171.129 20.8834 170.882 20.7943 170.59C20.7536 170.438 20.7443 170.279 20.767 170.123C20.7897 169.967 20.844 169.817 20.9264 169.683C21.0089 169.549 21.1178 169.433 21.2466 169.342C21.3754 169.251 21.5214 169.188 21.6756 169.155L74.1293 158.099C75.4795 158.86 75.0527 160.275 74.0622 160.484Z" fill="#CCCCCC"/>
<path d="M75.3177 166.44L23.4737 177.368C23.1765 177.437 22.8641 177.39 22.5998 177.238C22.3354 177.085 22.1389 176.838 22.0498 176.546C22.0091 176.394 21.9998 176.235 22.0225 176.079C22.0452 175.923 22.0994 175.774 22.1819 175.639C22.2644 175.505 22.3733 175.389 22.5021 175.298C22.6309 175.208 22.7769 175.144 22.9311 175.112L75.3848 164.055C76.735 164.816 76.3082 166.231 75.3177 166.44Z" fill="#CCCCCC"/>
<path d="M76.5739 172.4L24.73 183.328C24.4327 183.397 24.1203 183.35 23.856 183.198C23.5917 183.045 23.3951 182.798 23.306 182.506C23.2653 182.354 23.256 182.195 23.2787 182.039C23.3014 181.883 23.3557 181.734 23.4381 181.599C23.5206 181.465 23.6296 181.349 23.7584 181.258C23.8872 181.167 24.0331 181.104 24.1873 181.071L76.6411 170.015C77.9912 170.776 77.5645 172.191 76.5739 172.4Z" fill="#CCCCCC"/>
<path d="M77.8295 178.357L25.9856 189.285C25.6883 189.353 25.3759 189.307 25.1116 189.155C24.8473 189.002 24.6507 188.755 24.5616 188.463C24.5209 188.311 24.5116 188.152 24.5343 187.996C24.557 187.84 24.6113 187.69 24.6938 187.556C24.7762 187.422 24.8852 187.306 25.014 187.215C25.1428 187.124 25.2887 187.061 25.4429 187.028L77.8967 175.972C79.2468 176.733 78.8201 178.148 77.8295 178.357Z" fill="#CCCCCC"/>
<path d="M14.5354 197.946C15.197 197.742 15.8059 197.395 16.3189 196.93C16.832 196.465 17.2369 195.893 17.505 195.254C17.7732 194.616 17.8981 193.926 17.8709 193.234C17.8437 192.542 17.6652 191.865 17.3478 191.249L31.9538 150.652L21.8104 148.855L10.6428 189.325C9.64411 189.927 8.90085 190.874 8.55384 191.987C8.20684 193.1 8.28018 194.302 8.76 195.365C9.23981 196.427 10.0927 197.277 11.1572 197.753C12.2216 198.228 13.4236 198.297 14.5354 197.946Z" fill="#A0616A"/>
<path d="M27.9459 265.772H21.1048C20.8363 265.772 20.5706 265.718 20.3238 265.612C20.077 265.506 19.8542 265.351 19.6689 265.157C19.4836 264.963 19.3396 264.733 19.2458 264.481C19.1519 264.23 19.1101 263.962 19.1228 263.693L22.3723 193.878L22.5771 193.872L55.6123 193.011L62.0768 262.867C62.1016 263.129 62.0742 263.393 61.996 263.644C61.9178 263.895 61.7905 264.128 61.6214 264.33C61.4523 264.531 61.2449 264.697 61.0111 264.818C60.7773 264.938 60.5219 265.011 60.2597 265.032L52.5757 265.647C52.0929 265.685 51.6128 265.546 51.2257 265.255C50.8386 264.964 50.5711 264.542 50.4736 264.067L40.6448 214.339C40.618 214.188 40.5379 214.052 40.4191 213.955C40.3002 213.858 40.1505 213.806 39.9971 213.81H39.9944C39.8405 213.807 39.6905 213.859 39.5718 213.957C39.4531 214.055 39.3736 214.192 39.3478 214.344L29.8928 264.171C29.8033 264.622 29.5604 265.028 29.2055 265.319C28.8505 265.611 28.4055 265.771 27.9459 265.772Z" fill="#2F2E41"/>
<path d="M86.9812 151.077C86.8634 151.291 86.7627 151.513 86.6799 151.743L65.4558 157.01L61.7635 153.19L55.2706 158.009L61.1498 165.406C61.6248 166.003 62.2808 166.431 63.0194 166.624C63.7579 166.817 64.5391 166.765 65.2458 166.477L88.276 157.066C89.033 157.623 89.9417 157.937 90.8812 157.965C91.8207 157.993 92.7466 157.734 93.5356 157.223C94.3246 156.713 94.9393 155.974 95.2981 155.105C95.6569 154.236 95.7427 153.279 95.5441 152.36C95.3454 151.441 94.8718 150.605 94.1862 149.962C93.5006 149.319 92.6354 148.9 91.7059 148.761C90.7763 148.621 89.8264 148.768 88.9824 149.182C88.1384 149.596 87.4404 150.257 86.9812 151.077L86.9812 151.077Z" fill="#A0616A"/>
<path d="M30.0988 157.859L20.0838 154.015C19.7989 153.906 19.5409 153.736 19.3273 153.518C19.1138 153.3 18.9498 153.039 18.8464 152.751C18.7431 152.464 18.7028 152.158 18.7284 151.854C18.754 151.55 18.8449 151.255 18.9948 150.989L24.2487 141.674C24.8166 140.219 25.9381 139.049 27.3673 138.42C28.7966 137.791 30.4169 137.754 31.8731 138.318C33.3292 138.882 34.5025 140 35.1355 141.428C35.7686 142.855 35.8099 144.475 35.2502 145.933L32.9329 156.338C32.8664 156.636 32.7365 156.916 32.5521 157.159C32.3677 157.403 32.133 157.603 31.864 157.747C31.5951 157.892 31.2982 157.976 30.9936 157.996C30.6889 158.015 30.3838 157.968 30.0988 157.859V157.859Z" fill="#FF575C"/>
<path d="M36.846 202.059C31.6842 202.059 26.3823 200.703 21.987 196.691C21.7531 196.479 21.5726 196.215 21.46 195.92C21.3474 195.625 21.306 195.307 21.3391 194.993C21.8095 190.767 24.0915 168.942 22.8064 154.363C22.5556 151.64 22.9411 148.896 23.9325 146.347C24.9239 143.799 26.4941 141.516 28.5191 139.678C30.5086 137.844 32.8971 136.498 35.4959 135.745C38.0948 134.993 40.833 134.855 43.4945 135.341H43.4946C43.6295 135.366 43.7643 135.391 43.8993 135.417C52.5698 137.095 58.5942 145.119 57.9125 154.082C56.9178 167.161 56.0261 184.851 57.4262 194.856C57.4843 195.265 57.4128 195.682 57.2218 196.049C57.0309 196.415 56.7301 196.713 56.3614 196.9C53.1757 198.51 45.194 202.059 36.846 202.059Z" fill="#FF575C"/>
<path d="M50.978 158.638C50.7239 158.469 50.5092 158.247 50.3487 157.987C50.1882 157.728 50.0855 157.437 50.0478 157.134L48.7284 146.556C48.3095 145.051 48.5043 143.442 49.27 142.081C50.0356 140.72 51.3097 139.718 52.8129 139.295C54.3161 138.872 55.9257 139.063 57.2888 139.824C58.6519 140.586 59.6573 141.858 60.0845 143.36L64.4306 153.131C64.5546 153.41 64.6171 153.713 64.6137 154.018C64.6103 154.323 64.5412 154.624 64.4111 154.9C64.281 155.176 64.0928 155.421 63.8596 155.618C63.6263 155.815 63.3533 155.959 63.0593 156.041L52.7248 158.916C52.4307 158.998 52.1224 159.016 51.821 158.968C51.5195 158.92 51.232 158.807 50.978 158.638Z" fill="#FF575C"/>
<path d="M298.966 189.002L238.972 222.654C237.238 223.624 235.189 223.867 233.276 223.329C231.363 222.79 229.741 221.515 228.767 219.783L201.371 170.942C200.401 169.208 200.158 167.159 200.696 165.246C201.234 163.333 202.51 161.711 204.242 160.737L264.236 127.085C265.97 126.115 268.019 125.872 269.932 126.41C271.845 126.949 273.466 128.224 274.441 129.956L301.837 178.797C302.807 180.531 303.05 182.58 302.511 184.493C301.973 186.406 300.698 188.028 298.966 189.002Z" fill="white"/>
<path d="M298.966 189.002L238.972 222.654C237.238 223.624 235.189 223.867 233.276 223.329C231.363 222.79 229.741 221.515 228.767 219.783L201.371 170.942C200.401 169.208 200.158 167.159 200.696 165.246C201.234 163.333 202.51 161.711 204.242 160.737L264.236 127.085C265.97 126.115 268.019 125.872 269.932 126.41C271.845 126.949 273.466 128.224 274.441 129.956L301.837 178.797C302.807 180.531 303.05 182.58 302.511 184.493C301.973 186.406 300.698 188.028 298.966 189.002ZM204.673 161.506C203.145 162.366 202.02 163.797 201.545 165.485C201.07 167.173 201.284 168.98 202.14 170.511L229.536 219.352C230.396 220.88 231.827 222.005 233.515 222.48C235.203 222.955 237.01 222.741 238.541 221.885L298.535 188.233C300.063 187.373 301.188 185.942 301.663 184.254C302.138 182.566 301.924 180.759 301.067 179.228L273.671 130.387C272.812 128.859 271.381 127.734 269.693 127.259C268.005 126.784 266.197 126.998 264.667 127.854L204.673 161.506Z" fill="#3F3D56"/>
<path d="M265.644 145.577L235.365 162.561C235.102 162.715 234.79 162.764 234.493 162.698C234.195 162.631 233.933 162.454 233.761 162.202C233.677 162.069 233.62 161.92 233.595 161.765C233.57 161.609 233.578 161.45 233.616 161.297C233.655 161.144 233.724 161.001 233.82 160.876C233.916 160.751 234.036 160.647 234.173 160.57L264.995 143.281C266.51 143.604 266.526 145.082 265.643 145.577L265.644 145.577Z" fill="#CCCCCC"/>
<path d="M233.495 174.567L224.255 179.75C223.953 179.919 223.596 179.962 223.263 179.868C222.93 179.774 222.648 179.552 222.478 179.251L216.362 168.346C216.193 168.044 216.15 167.688 216.244 167.355C216.338 167.022 216.56 166.739 216.861 166.57L226.102 161.387C226.404 161.218 226.76 161.175 227.093 161.269C227.426 161.363 227.709 161.585 227.878 161.886L233.995 172.791C234.164 173.093 234.206 173.449 234.112 173.782C234.019 174.115 233.797 174.398 233.495 174.567L233.495 174.567Z" fill="#CCCCCC"/>
<path d="M268.623 150.888L238.344 167.872C238.081 168.026 237.769 168.075 237.472 168.009C237.174 167.942 236.912 167.765 236.74 167.513C236.656 167.38 236.599 167.231 236.574 167.076C236.55 166.92 236.557 166.761 236.595 166.608C236.634 166.455 236.703 166.312 236.799 166.187C236.895 166.062 237.015 165.958 237.152 165.881L267.974 148.592C269.489 148.915 269.505 150.393 268.622 150.888L268.623 150.888Z" fill="#CCCCCC"/>
<path d="M274.634 161.812L228.424 187.732C228.161 187.887 227.849 187.936 227.551 187.869C227.253 187.802 226.992 187.625 226.82 187.373C226.735 187.24 226.679 187.091 226.654 186.936C226.629 186.78 226.636 186.621 226.675 186.468C226.713 186.316 226.783 186.172 226.879 186.047C226.974 185.922 227.095 185.818 227.232 185.741L273.986 159.516C275.501 159.838 275.517 161.317 274.634 161.812Z" fill="#CCCCCC"/>
<path d="M277.614 167.124L231.404 193.044C231.141 193.199 230.829 193.248 230.531 193.182C230.233 193.115 229.972 192.938 229.8 192.686C229.715 192.553 229.659 192.404 229.634 192.248C229.609 192.093 229.616 191.934 229.655 191.781C229.693 191.628 229.763 191.485 229.858 191.36C229.954 191.235 230.074 191.13 230.212 191.053L276.965 164.828C278.481 165.151 278.497 166.629 277.614 167.124V167.124Z" fill="#CCCCCC"/>
<path d="M280.592 172.433L234.382 198.354C234.119 198.508 233.807 198.557 233.509 198.491C233.211 198.424 232.95 198.247 232.778 197.995C232.693 197.862 232.637 197.713 232.612 197.558C232.587 197.402 232.594 197.243 232.633 197.09C232.671 196.937 232.741 196.794 232.836 196.669C232.932 196.544 233.052 196.44 233.19 196.362L279.943 170.137C281.459 170.46 281.475 171.938 280.592 172.433Z" fill="#CCCCCC"/>
<path d="M283.572 177.745L237.362 203.666C237.099 203.82 236.787 203.869 236.489 203.803C236.191 203.736 235.93 203.559 235.757 203.307C235.673 203.174 235.617 203.025 235.592 202.87C235.567 202.714 235.574 202.555 235.612 202.402C235.651 202.249 235.72 202.106 235.816 201.981C235.912 201.856 236.032 201.752 236.17 201.674L282.923 175.449C284.439 175.772 284.455 177.25 283.572 177.745H283.572Z" fill="#CCCCCC"/>
<path d="M286.55 183.055L240.34 208.975C240.077 209.13 239.765 209.179 239.467 209.112C239.169 209.046 238.908 208.869 238.736 208.617C238.651 208.484 238.595 208.335 238.57 208.179C238.545 208.024 238.552 207.864 238.591 207.712C238.629 207.559 238.698 207.416 238.794 207.29C238.89 207.165 239.01 207.061 239.148 206.984L285.901 180.759C287.417 181.082 287.433 182.56 286.55 183.055V183.055Z" fill="#CCCCCC"/>
<path d="M278.488 202.952C278.74 202.397 278.867 201.793 278.86 201.184C278.853 200.575 278.712 199.974 278.448 199.425C278.184 198.876 277.803 198.391 277.332 198.005C276.86 197.619 276.31 197.341 275.719 197.191L274.462 182.43L268.418 187.198L270.538 200.484C270.352 201.493 270.542 202.535 271.072 203.413C271.603 204.292 272.437 204.945 273.417 205.249C274.397 205.553 275.454 205.487 276.389 205.064C277.324 204.641 278.071 203.889 278.488 202.952Z" fill="#FFB8B8"/>
<path d="M274.576 195.645L269.557 196.244C269.302 196.274 269.044 196.251 268.798 196.177C268.552 196.103 268.324 195.979 268.128 195.813C267.933 195.646 267.773 195.441 267.66 195.211C267.548 194.98 267.484 194.728 267.473 194.472L266.741 177.538L257.226 151.547C256.845 150.74 256.671 149.851 256.72 148.96C256.77 148.07 257.041 147.205 257.509 146.446C257.742 146.079 258.009 145.735 258.306 145.417C258.892 144.787 259.621 144.307 260.432 144.019C261.243 143.731 262.111 143.643 262.963 143.764C263.841 143.88 264.679 144.205 265.406 144.71C266.133 145.216 266.729 145.887 267.145 146.669L273.35 159.671C275.945 165.109 277.171 171.1 276.919 177.121L276.219 193.871C276.201 194.31 276.029 194.727 275.733 195.051C275.437 195.375 275.036 195.584 274.601 195.642L274.576 195.645Z" fill="#FF575C"/>
<path d="M279.406 267.777L251.094 204.597C251.043 204.478 250.956 204.379 250.846 204.312C250.736 204.245 250.608 204.213 250.479 204.223C250.351 204.232 250.228 204.281 250.128 204.362C250.029 204.444 249.957 204.555 249.923 204.68L232.673 265.704C232.559 266.131 232.297 266.503 231.933 266.754C231.568 267.005 231.127 267.117 230.687 267.071L221.266 266.129C220.781 266.078 220.334 265.84 220.022 265.465C219.709 265.09 219.555 264.608 219.591 264.122C222.588 226.851 227.312 191.676 241.463 168.649L241.538 168.526L262.943 172.723L291.52 263.723C291.661 264.191 291.613 264.697 291.387 265.13C291.16 265.564 290.772 265.892 290.307 266.044L281.69 268.814C281.248 268.957 280.769 268.93 280.346 268.738C279.924 268.547 279.588 268.203 279.406 267.777Z" fill="#2F2E41"/>
<path d="M212.853 189.781C213.456 189.692 214.032 189.472 214.54 189.136C215.049 188.8 215.478 188.357 215.797 187.838C216.115 187.318 216.316 186.735 216.385 186.13C216.454 185.524 216.39 184.911 216.196 184.333L227.924 175.282L220.642 172.784L210.622 181.762C209.673 182.152 208.899 182.876 208.449 183.797C207.998 184.719 207.901 185.774 208.176 186.763C208.451 187.751 209.079 188.604 209.941 189.161C210.803 189.717 211.839 189.938 212.853 189.781V189.781Z" fill="#FFB8B8"/>
<path d="M240.147 170.411L240.018 170.385L239.987 170.256C238.615 164.464 238.582 158.143 239.89 151.469C240.553 148.058 242.398 144.991 245.101 142.807C247.804 140.623 251.191 139.463 254.665 139.531C258.434 139.607 262.032 141.121 264.722 143.763C267.412 146.405 268.991 149.975 269.136 153.743C269.572 165.221 264.881 175.173 264.834 175.272L264.764 175.418L240.147 170.411Z" fill="#FF575C"/>
<path d="M219.258 182.956C218.877 183.181 218.427 183.263 217.99 183.186C217.553 183.109 217.158 182.878 216.877 182.536L213.655 178.64C213.491 178.442 213.37 178.213 213.3 177.966C213.229 177.719 213.21 177.46 213.243 177.206C213.277 176.951 213.363 176.706 213.496 176.486C213.629 176.267 213.806 176.077 214.016 175.928L227.854 166.142L244.55 144.066C245.022 143.309 245.675 142.681 246.451 142.24C247.226 141.799 248.1 141.559 248.992 141.542C249.426 141.539 249.86 141.577 250.288 141.655C251.135 141.805 251.933 142.159 252.615 142.684C253.296 143.21 253.84 143.893 254.2 144.674C254.578 145.475 254.758 146.355 254.727 147.24C254.696 148.125 254.455 148.99 254.022 149.763L241.659 169.785L241.632 169.828L219.258 182.956Z" fill="#FF575C"/>
<path d="M251.884 136.285C257.507 136.285 262.066 131.726 262.066 126.103C262.066 120.48 257.507 115.921 251.884 115.921C246.261 115.921 241.702 120.48 241.702 126.103C241.702 131.726 246.261 136.285 251.884 136.285Z" fill="#FFB8B8"/>
<path d="M40.4774 131.611C46.4587 131.611 51.3075 126.762 51.3075 120.781C51.3075 114.8 46.4587 109.951 40.4774 109.951C34.4961 109.951 29.6473 114.8 29.6473 120.781C29.6473 126.762 34.4961 131.611 40.4774 131.611Z" fill="#A0616A"/>
<path d="M253.705 125.471C252.955 124.237 251.299 123.888 249.861 124.029C248.423 124.17 247.025 124.675 245.58 124.664C241.569 124.633 238.473 119.744 240.159 116.104C241.542 113.119 244.997 111.809 248.121 110.78C254.673 108.623 262.199 106.551 268.144 110.048C270.038 111.195 271.592 112.828 272.645 114.777C273.698 116.725 274.211 118.92 274.132 121.133C273.998 123.886 272.944 126.713 273.835 129.32C274.864 132.328 278.125 133.942 281.206 134.722C286.608 136.091 292.303 135.87 297.739 137.098C303.175 138.325 308.745 141.584 310.21 146.961C311.172 150.492 310.168 154.294 308.505 157.554C306.808 160.881 304.45 163.826 301.575 166.21C298.7 168.593 295.369 170.365 291.786 171.416C288.203 172.467 284.442 172.775 280.736 172.322C277.029 171.869 273.453 170.664 270.229 168.781C263.657 164.944 258.913 158.459 256.085 151.395C254.481 147.274 253.352 142.984 252.72 138.608C252.086 134.511 252.624 130.371 253.771 126.388C253.825 126.239 253.847 126.08 253.836 125.922C253.825 125.764 253.78 125.611 253.705 125.471Z" fill="#2F2E41"/>
<path d="M36.6967 131.458C35.6716 131.477 34.6529 131.293 33.6995 130.916C33.28 130.754 32.8445 130.621 32.4258 130.46C28.7277 129.031 26.2917 125.092 26.2045 121.129C26.1172 117.165 28.1698 113.319 31.2176 110.783C34.2655 108.248 38.2132 106.947 42.1662 106.646C46.4243 106.321 51.2189 107.401 53.5983 110.947C54.2316 111.891 54.6746 113.036 54.2993 114.176C54.1869 114.52 53.9861 114.828 53.7171 115.07C52.6545 116.016 51.5952 115.305 50.512 115.242C49.0231 115.156 47.6858 116.361 47.2052 117.773C46.7246 119.184 46.9361 120.739 47.3242 122.179C47.6199 123.045 47.8063 123.945 47.8791 124.858C47.9104 125.315 47.8243 125.773 47.629 126.189C47.4337 126.604 47.1356 126.962 46.763 127.229C45.8327 127.792 44.6109 127.466 43.68 126.905C42.7491 126.343 41.9447 125.563 40.9392 125.15C39.9336 124.736 38.5827 124.828 37.9974 125.744C37.8114 126.078 37.6855 126.441 37.6255 126.818C37.1008 129.208 37.2214 129.068 36.6967 131.458V131.458Z" fill="#2F2E41"/>
<path d="M180.84 87.8666H119.05C118.407 87.8666 117.791 87.6113 117.336 87.1569C116.882 86.7024 116.626 86.0861 116.626 85.4434C116.626 84.8008 116.882 84.1844 117.336 83.73C117.791 83.2756 118.407 83.0203 119.05 83.0203H180.84C181.483 83.0203 182.099 83.2756 182.554 83.73C183.008 84.1844 183.263 84.8008 183.263 85.4434C183.263 86.0861 183.008 86.7024 182.554 87.1569C182.099 87.6113 181.483 87.8666 180.84 87.8666Z" fill="#CCCCCC"/>
<path d="M170.845 79.6884H119.05C118.407 79.6884 117.791 79.4331 117.336 78.9786C116.882 78.5242 116.626 77.9079 116.626 77.2652C116.626 76.6225 116.882 76.0062 117.336 75.5518C117.791 75.0973 118.407 74.842 119.05 74.842H170.845C171.487 74.842 172.104 75.0973 172.558 75.5518C173.013 76.0062 173.268 76.6225 173.268 77.2652C173.268 77.9079 173.013 78.5242 172.558 78.9786C172.104 79.4331 171.487 79.6884 170.845 79.6884Z" fill="#CCCCCC"/>
<path d="M98.3628 89.9189C103.093 89.9189 106.927 86.0844 106.927 81.3543C106.927 76.6243 103.093 72.7898 98.3628 72.7898C93.6327 72.7898 89.7982 76.6243 89.7982 81.3543C89.7982 86.0844 93.6327 89.9189 98.3628 89.9189Z" fill="#CCCCCC"/>
<path d="M180.84 51.2163H119.05C118.407 51.2163 117.791 50.961 117.336 50.5066C116.882 50.0522 116.626 49.4358 116.626 48.7932C116.626 48.1505 116.882 47.5342 117.336 47.0797C117.791 46.6253 118.407 46.37 119.05 46.37H180.84C181.483 46.37 182.099 46.6253 182.554 47.0797C183.008 47.5342 183.263 48.1505 183.263 48.7932C183.263 49.4358 183.008 50.0522 182.554 50.5066C182.099 50.961 181.483 51.2163 180.84 51.2163Z" fill="#CCCCCC"/>
<path d="M170.845 43.0381H119.05C118.731 43.0381 118.416 42.9754 118.122 42.8536C117.828 42.7319 117.561 42.5534 117.336 42.3284C117.111 42.1034 116.933 41.8362 116.811 41.5422C116.689 41.2482 116.626 40.9331 116.626 40.6149C116.626 40.2967 116.689 39.9816 116.811 39.6876C116.933 39.3936 117.111 39.1265 117.336 38.9015C117.561 38.6765 117.828 38.498 118.122 38.3762C118.416 38.2544 118.731 38.1918 119.05 38.1918H170.845C171.163 38.1918 171.478 38.2544 171.772 38.3762C172.066 38.498 172.333 38.6765 172.558 38.9015C172.783 39.1265 172.962 39.3936 173.083 39.6876C173.205 39.9816 173.268 40.2967 173.268 40.6149C173.268 40.9331 173.205 41.2482 173.083 41.5422C172.962 41.8362 172.783 42.1034 172.558 42.3284C172.333 42.5534 172.066 42.7319 171.772 42.8536C171.478 42.9754 171.163 43.0381 170.845 43.0381Z" fill="#CCCCCC"/>
<path d="M97.4809 53.2686C102.211 53.2686 106.045 49.4341 106.045 44.7041C106.045 39.974 102.211 36.1395 97.4809 36.1395C92.7509 36.1395 88.9164 39.974 88.9164 44.7041C88.9164 49.4341 92.7509 53.2686 97.4809 53.2686Z" fill="#FF575C"/>
<path d="M96.6322 47.9711C96.4395 47.9715 96.252 47.9091 96.0978 47.7935L96.0883 47.7864L94.0755 46.2467C93.8874 46.1022 93.7644 45.8891 93.7335 45.654C93.7025 45.419 93.7662 45.1812 93.9104 44.9931C94.0547 44.8049 94.2677 44.6817 94.5028 44.6506C94.7378 44.6194 94.9756 44.6828 95.1639 44.8269L96.4676 45.8267L99.5484 41.8075C99.6198 41.7143 99.7089 41.6361 99.8106 41.5774C99.9122 41.5186 100.024 41.4805 100.141 41.4651C100.257 41.4497 100.376 41.4574 100.489 41.4878C100.602 41.5181 100.709 41.5705 100.802 41.6419L100.802 41.6421L100.783 41.6687L100.803 41.6421C100.991 41.7866 101.114 41.9998 101.145 42.2348C101.176 42.4699 101.112 42.7076 100.968 42.8959L97.3444 47.6213C97.2606 47.7301 97.1528 47.8182 97.0294 47.8787C96.9061 47.9392 96.7704 47.9705 96.633 47.9701L96.6322 47.9711Z" fill="white"/>
<path d="M207.085 18.4916H189.479C188.194 18.4916 186.961 17.981 186.052 17.0722C185.143 16.1633 184.633 14.9306 184.633 13.6453V0.641401C184.633 0.584469 184.649 0.528685 184.679 0.480454C184.709 0.432224 184.752 0.393496 184.804 0.368711C184.855 0.343926 184.912 0.334087 184.969 0.340324C185.025 0.346561 185.079 0.368621 185.124 0.403974L207.274 17.9513C207.323 17.9903 207.359 18.0438 207.376 18.1042C207.394 18.1645 207.392 18.2289 207.372 18.2883C207.351 18.3477 207.312 18.3992 207.261 18.4356C207.21 18.472 207.148 18.4916 207.085 18.4916Z" fill="#E6E6E6"/>
</g>
<defs>
<clipPath id="clip0_1027_8886">
<rect width="310.585" height="280" fill="white"/>
</clipPath>
</defs>
</svg>
