<svg width="324" height="260" viewBox="0 0 324 260" fill="none" xmlns="http://www.w3.org/2000/svg">
<g clip-path="url(#clip0_1027_8856)">
<path d="M225.136 253.067L219.151 253.066L216.305 229.983H225.137L225.136 253.067Z" fill="#FFB6B6"/>
<path d="M224.976 251.112L218.587 248.513L218.404 248.438L214.876 251.112C212.884 251.112 210.974 251.904 209.565 253.312C208.157 254.721 207.365 256.631 207.365 258.623V258.867H226.661V251.112H224.976Z" fill="#2F2E41"/>
<path d="M279.211 245.286L273.855 247.955L261.009 228.566L268.915 224.626L279.211 245.286Z" fill="#FFB6B6"/>
<path d="M279.706 242.855L278.337 243.535L278.196 243.605L271.328 244.136L271.121 244.15L269.155 248.114C268.273 248.554 267.485 249.163 266.838 249.908C266.191 250.652 265.697 251.517 265.384 252.452C265.071 253.388 264.946 254.375 265.015 255.359C265.084 256.343 265.346 257.304 265.787 258.186L265.895 258.402L283.164 249.798L279.706 242.855Z" fill="#2F2E41"/>
<path d="M319.452 225.961C318.568 224.836 317.366 224.002 316.003 223.567C314.64 223.131 313.178 223.114 311.805 223.517L311.505 223.606L308.812 234.119C308.408 232.553 307.545 229.015 307.001 225.553L306.954 225.267L306.687 225.384C303.872 226.628 301.225 228.224 298.81 230.132C294.531 233.564 291.051 237.887 288.612 242.799C286.172 247.712 284.832 253.097 284.684 258.58L284.679 258.782L284.675 258.909L285.031 258.782L292.683 256.047C296.071 256.346 299.482 255.884 302.669 254.696C305.855 253.507 308.736 251.623 311.101 249.179C314.193 245.918 316.314 241.724 318.364 237.666C318.964 236.484 319.579 235.264 320.207 234.091C320.909 232.816 321.212 231.36 321.077 229.91C320.942 228.461 320.376 227.085 319.452 225.961Z" fill="#F2F2F2"/>
<path d="M322.756 259.856L195.267 260C195.119 260 194.977 259.941 194.872 259.836C194.767 259.732 194.708 259.59 194.708 259.441C194.708 259.293 194.767 259.151 194.872 259.046C194.977 258.942 195.119 258.883 195.267 258.883L322.756 258.739C322.904 258.739 323.046 258.798 323.151 258.902C323.256 259.007 323.314 259.149 323.314 259.297C323.314 259.445 323.256 259.587 323.151 259.692C323.046 259.797 322.904 259.856 322.756 259.856Z" fill="#CACACA"/>
<path d="M77.1198 139.187H76.1815V175.331H144.046V174.393H77.1198V139.187Z" fill="#3F3D56"/>
<path d="M154.453 188.388C161.651 188.388 167.486 182.553 167.486 175.356C167.486 168.158 161.651 162.323 154.453 162.323C147.255 162.323 141.42 168.158 141.42 175.356C141.42 182.553 147.255 188.388 154.453 188.388Z" fill="#FF575C"/>
<path d="M152.675 182.138C152.45 182.138 152.228 182.086 152.027 181.985C151.826 181.885 151.65 181.739 151.515 181.559L147.96 176.818C147.846 176.665 147.763 176.492 147.715 176.308C147.668 176.123 147.658 175.931 147.685 175.743C147.712 175.554 147.775 175.373 147.872 175.209C147.969 175.045 148.098 174.902 148.25 174.788C148.402 174.674 148.576 174.591 148.76 174.544C148.944 174.496 149.136 174.486 149.325 174.513C149.513 174.54 149.695 174.604 149.858 174.701C150.022 174.798 150.165 174.926 150.279 175.078L152.606 178.179L158.58 169.218C158.686 169.059 158.821 168.923 158.98 168.817C159.138 168.711 159.315 168.637 159.502 168.6C159.689 168.562 159.881 168.562 160.068 168.599C160.255 168.636 160.433 168.709 160.591 168.815C160.75 168.92 160.886 169.056 160.992 169.215C161.098 169.373 161.171 169.551 161.209 169.737C161.246 169.924 161.246 170.117 161.209 170.303C161.172 170.49 161.098 170.668 160.993 170.826L153.882 181.493C153.753 181.686 153.58 181.845 153.377 181.957C153.174 182.07 152.947 182.132 152.715 182.138C152.702 182.138 152.689 182.138 152.675 182.138Z" fill="white"/>
<path d="M221.077 128.995L254.077 130.15L254.307 129.815C254.307 129.815 257.122 136.383 257.122 142.013C257.122 143.885 255.82 156.127 256.482 158.443C256.564 158.731 255.998 159.437 256.184 160.779C256.304 161.649 256.969 160.98 257.122 162.186C257.232 163.052 256.061 163.53 256.184 164.532C256.317 165.626 257.927 169.171 258.072 170.388C259.615 183.349 261.669 202.125 261.669 202.125C261.669 202.125 269.92 224.223 271.665 224.582C274.595 225.184 276.573 230.511 274.949 231.619C274.176 232.147 264.185 235.695 264.185 235.695C263.636 235.795 261.919 234.933 263.013 232.896C263.214 232.521 262.013 233.475 261.813 233.026C261.601 232.549 262.018 230.649 261.775 230.119C259.591 225.361 256.239 218.766 253.062 215.38C248.368 210.377 245.395 204.005 244.578 197.194L237.291 156.789L234.793 168.119L232.727 170.161L233.294 174.923L233.196 179.544L228.035 198.779C228.035 198.779 227.261 234.701 228.504 235.841C229.178 236.459 232.034 244.069 226.628 244.755L216.805 243.997C216.805 243.997 215.481 241.208 216.143 240.215C216.805 239.223 216.765 239.494 215.958 237.869C215.15 236.245 215.481 233.492 215.481 233.492C214.194 220.556 213.687 207.554 213.961 194.557C214.453 173.21 217.437 148.686 217.437 148.186C217.462 147.675 217.368 147.165 217.163 146.697V145.35L218.43 140.575L221.077 128.995Z" fill="#2F2E41"/>
<path d="M267.516 133.03C274.714 133.03 280.549 127.195 280.549 119.997C280.549 112.799 274.714 106.964 267.516 106.964C260.318 106.964 254.483 112.799 254.483 119.997C254.483 127.195 260.318 133.03 267.516 133.03Z" fill="#FF575C"/>
<path d="M265.738 126.78C265.513 126.78 265.291 126.727 265.09 126.627C264.889 126.526 264.713 126.38 264.579 126.2L261.023 121.459C260.909 121.307 260.826 121.133 260.778 120.949C260.731 120.765 260.721 120.573 260.748 120.384C260.775 120.196 260.838 120.014 260.935 119.851C261.032 119.687 261.161 119.544 261.313 119.43C261.465 119.315 261.639 119.232 261.823 119.185C262.007 119.138 262.199 119.127 262.388 119.154C262.576 119.181 262.758 119.245 262.921 119.342C263.085 119.439 263.228 119.567 263.343 119.72L265.669 122.821L271.643 113.859C271.749 113.701 271.884 113.564 272.043 113.458C272.201 113.352 272.378 113.278 272.565 113.241C272.752 113.203 272.944 113.203 273.131 113.24C273.318 113.277 273.496 113.35 273.654 113.456C273.813 113.562 273.949 113.698 274.055 113.856C274.161 114.014 274.234 114.192 274.272 114.379C274.309 114.566 274.309 114.758 274.272 114.945C274.235 115.132 274.161 115.309 274.056 115.468L266.945 126.134C266.816 126.327 266.643 126.486 266.44 126.599C266.237 126.711 266.01 126.773 265.779 126.779C265.765 126.78 265.752 126.78 265.738 126.78Z" fill="white"/>
<path d="M273.961 133.775C274.088 133.242 274.096 132.688 273.986 132.151C273.875 131.614 273.649 131.109 273.322 130.669C272.995 130.229 272.575 129.867 272.093 129.607C271.611 129.347 271.077 129.196 270.53 129.165L263.852 106.412L259.335 111.655L266.522 132.958C266.53 133.88 266.876 134.768 267.495 135.452C268.113 136.136 268.962 136.57 269.879 136.67C270.795 136.771 271.717 136.532 272.47 135.998C273.222 135.465 273.753 134.674 273.961 133.775Z" fill="#FFB8B8"/>
<path d="M130.474 98.5835C129.97 97.3875 129.215 96.314 128.259 95.436C127.304 94.558 126.17 93.8961 124.936 93.4953L92.3996 82.9236C90.5003 87.3903 87.4607 91.2795 83.5852 94.2018C79.7097 97.124 75.1345 98.9767 70.3176 99.5742V133.474C70.3183 134.775 70.6002 136.061 71.1442 137.243C71.6881 138.425 72.4811 139.476 73.4689 140.323C74.4567 141.17 75.6159 141.793 76.8672 142.151C78.1184 142.508 79.4321 142.591 80.7182 142.393C91.2894 140.758 101.311 136.599 109.934 130.27C118.558 123.941 125.53 115.627 130.259 106.032C130.828 104.879 131.141 103.617 131.178 102.331C131.215 101.046 130.975 99.7678 130.474 98.5835Z" fill="#3F3D56"/>
<path d="M269.249 122.675L268.381 119.494L269.376 117.594L269.301 117.374L269.001 116.52L267.443 115.272L268.001 113.681L266.031 108.085L265.548 107.113L254.237 84.4024L251.525 78.9556L250.896 77.9704L248.94 74.9023L246.266 70.7128C245.841 70.0432 245.287 69.4649 244.636 69.0114C243.985 68.558 243.251 68.2385 242.475 68.0716C242.225 68.0165 241.971 67.9773 241.715 67.9543L241.532 67.9402C241.076 67.915 240.618 67.9418 240.167 68.02H240.158C239.364 68.1577 238.607 68.458 237.934 68.9019C237.405 69.2447 236.933 69.669 236.536 70.1592C235.623 71.2922 235.148 72.7161 235.199 74.1704L235.283 76.4598L235.368 78.5428L239.337 85.7207L239.595 86.1898L239.6 86.2039L251.811 108.3L255.494 114.962L256.052 115.976L258.529 117.618L257.868 119.269L258.06 121.84L260.167 123.43L263.221 126.531L263.343 126.785L264.281 126.311L264.37 126.264L264.581 126.203L267.485 125.326L269.249 124.795L269.306 124.777L269.789 124.655L269.249 122.675Z" fill="#E6E6E6"/>
<path d="M257.591 140.516C257.605 141.504 257.446 142.487 257.122 143.42L257.052 143.406C248.719 144.847 241.287 145.083 237.848 139.969C233.362 134.257 227.192 134.321 220.308 136.829L219.492 135.947L218.104 134.45L219.38 133.005L218.104 130.219L219.168 126.78L220.529 126.531L220.163 123.571L219.591 121.84L221.27 119.996L222.696 115.394L221.669 105.762C220.263 92.5604 222.987 79.2473 229.466 67.6588L233.365 64.159L234.983 62.7046L237.155 58.6512L239.449 58.9187L245.661 59.6364L245.872 60.1431L247.397 63.8212L255.428 72.4487L255.067 76.0892L254.908 77.6937L254.79 78.8478L254.237 84.4024L251.98 107.095L251.811 108.3L249.996 121.347C252.947 124.2 255.555 129.693 256.808 134.713C256.948 135.271 256.55 135.839 256.653 136.383C256.798 137.153 257.432 137.885 257.502 138.602C257.567 139.238 257.597 139.877 257.591 140.516Z" fill="#E6E6E6"/>
<path d="M263.413 76.3238C263.263 77.5811 262.086 78.5194 260.847 78.7821C260.217 78.9033 259.571 78.9144 258.938 78.815C258.319 78.7231 257.707 78.5867 257.108 78.4068C256.367 78.1957 255.633 77.958 254.908 77.6937C252.835 76.9536 250.837 76.019 248.94 74.9024C247.506 74.065 246.133 73.1276 244.83 72.0969C244.155 71.5621 243.5 71.0038 242.865 70.422L243.658 70.7974C242.949 69.845 242.241 68.8926 241.532 67.9403C240.847 67.0208 240.164 66.1013 239.482 65.1817C239.44 65.1254 239.407 65.0879 239.393 65.0691V65.0645C239.079 64.6469 238.769 64.2294 238.46 63.8118C237.526 62.5592 236.606 60.7202 237.681 59.5896C237.91 59.3694 238.188 59.2066 238.492 59.1145C238.796 59.0223 239.118 59.0035 239.431 59.0594C239.767 59.1032 240.093 59.2081 240.392 59.3691C241.213 59.9005 241.909 60.6031 242.433 61.4286C243.165 60.3637 244.587 59.9696 245.872 60.1432C245.942 60.1479 246.008 60.1572 246.074 60.1666C247.411 60.3965 247.988 59.674 249.147 60.3824C249.686 60.7108 250.014 62.3997 250.554 62.7281C250.859 62.9158 251.99 63.1973 252.299 63.3896C252.909 63.7649 252.754 65.1677 253.369 65.543C253.824 65.8198 255.044 65.0738 255.499 65.3506C255.977 65.6462 256.643 67.5978 257.122 67.8887C258.074 68.4751 258.839 67.4055 259.791 67.9872C261.016 68.7425 262.32 69.5823 262.836 70.924C263.291 72.1063 262.705 73.7248 261.574 74.0626C262.114 74.1271 262.608 74.3991 262.951 74.821C263.294 75.243 263.46 75.782 263.413 76.3238Z" fill="#E6E6E6"/>
<path opacity="0.2" d="M254.908 77.6937L254.79 78.8478C253.461 78.7197 252.153 78.425 250.896 77.9705C249.243 77.4154 247.809 76.3492 246.801 74.9258C246.163 73.9687 245.497 73.0164 244.83 72.0969C243.723 70.5581 242.626 69.1225 241.715 67.9544C240.604 66.5422 239.768 65.5195 239.482 65.1817C239.44 65.1254 239.407 65.0879 239.393 65.0691L239.379 65.0551L239.393 65.0644C244.967 72.1196 250.233 76.188 255.067 76.0893C255.067 76.0893 255.635 77.9564 254.908 77.6937Z" fill="black"/>
<path d="M241.683 57.1984C247.642 57.1984 252.472 52.3682 252.472 46.4099C252.472 40.4516 247.642 35.6215 241.683 35.6215C235.725 35.6215 230.895 40.4516 230.895 46.4099C230.895 52.3682 235.725 57.1984 241.683 57.1984Z" fill="#FFB6B6"/>
<path d="M254.688 43.4667C254.05 41.4761 252.298 39.7919 250.22 39.5718C250.377 38.2496 250.169 36.9096 249.618 35.6977C249.066 34.4857 248.193 33.4482 247.093 32.6981C245.993 31.9481 244.708 31.5142 243.378 31.4438C242.049 31.3734 240.725 31.6691 239.552 32.2987C239.303 31.9992 238.981 31.7691 238.617 31.6307C238.252 31.4923 237.859 31.4502 237.473 31.5087C236.703 31.6356 235.977 31.9537 235.362 32.4339C233.833 33.5518 232.637 35.0632 231.899 36.8073C231.161 38.5513 230.91 40.4628 231.173 42.3381C231.168 41.3868 231.59 43.2273 232.798 43.3899C233.805 43.5925 234.764 43.9879 235.621 44.5543C236.478 45.1207 237.433 45.5212 238.438 45.7352C239.452 45.8835 239.714 49.9481 238.989 52.5659C238.852 53.0621 238.782 53.7277 239.24 53.9641C239.803 54.2553 240.372 53.5233 241.002 53.4519C241.284 53.4474 241.558 53.5529 241.764 53.746C241.971 53.9392 242.094 54.2049 242.108 54.4872C242.109 54.7704 242.042 55.0497 241.913 55.3018C241.784 55.5539 241.596 55.7715 241.366 55.9364C240.903 56.2617 240.39 56.51 239.848 56.6718L240.03 56.93C240.189 57.2252 240.446 57.4559 240.756 57.5824C241.067 57.709 241.412 57.7236 241.732 57.6238C242.453 58.494 249.888 56.0777 250.25 54.4894C251.807 53.0866 253.1 51.4162 254.068 49.5574C255.035 47.6779 255.257 45.5025 254.688 43.4667Z" fill="#2F2E41"/>
<path d="M123.096 51.4367H122.157V15.2926H190.022V16.2309H123.096V51.4367Z" fill="#3F3D56"/>
<path d="M200.429 26.0655C207.627 26.0655 213.462 20.2305 213.462 13.0327C213.462 5.83496 207.627 0 200.429 0C193.231 0 187.396 5.83496 187.396 13.0327C187.396 20.2305 193.231 26.0655 200.429 26.0655Z" fill="#FF575C"/>
<path d="M198.651 19.8157C198.426 19.8157 198.204 19.7633 198.003 19.6627C197.801 19.562 197.626 19.4158 197.491 19.2357L193.936 14.4949C193.822 14.3426 193.738 14.1693 193.691 13.9849C193.644 13.8005 193.633 13.6086 193.66 13.4201C193.687 13.2317 193.751 13.0503 193.848 12.8865C193.945 12.7227 194.073 12.5796 194.226 12.4654C194.378 12.3512 194.551 12.2681 194.736 12.2208C194.92 12.1736 195.112 12.1631 195.301 12.1901C195.489 12.217 195.67 12.2808 195.834 12.3778C195.998 12.4748 196.141 12.6031 196.255 12.7554L198.581 15.8567L204.556 6.89519C204.661 6.7366 204.797 6.60036 204.955 6.49425C205.114 6.38815 205.291 6.31426 205.478 6.27682C205.665 6.23938 205.857 6.23911 206.044 6.27603C206.231 6.31296 206.409 6.38635 206.567 6.49202C206.726 6.59768 206.862 6.73356 206.968 6.89186C207.074 7.05016 207.147 7.22779 207.185 7.4146C207.222 7.60141 207.222 7.79374 207.185 7.98058C207.148 8.16743 207.074 8.34513 206.968 8.50354L199.857 19.1701C199.729 19.363 199.556 19.5223 199.353 19.6345C199.15 19.7468 198.923 19.8088 198.691 19.8153C198.678 19.8155 198.664 19.8157 198.651 19.8157Z" fill="white"/>
<path d="M203.895 21.1958C203.758 21.7262 203.739 22.2802 203.839 22.8189C203.939 23.3576 204.155 23.8678 204.474 24.3135C204.792 24.7593 205.205 25.1299 205.682 25.3991C206.159 25.6682 206.69 25.8295 207.236 25.8716L213.472 48.749L218.09 43.5948L211.317 22.1565C211.326 21.2341 210.998 20.3402 210.392 19.6441C209.787 18.9481 208.947 18.4982 208.033 18.3798C207.118 18.2614 206.191 18.4827 205.429 19.0017C204.666 19.5207 204.121 20.3014 203.895 21.1958Z" fill="#FFB8B8"/>
<path d="M240.51 79.6969L240.467 77.614L236.536 70.1593L236.391 69.8872L236.381 69.8731L233.365 64.159L218.808 36.5613L217.245 35.987L217.323 33.7453L217.245 31.2956L215.367 30.0365L214.566 28.5183L213.431 28.842H213.426L213.393 28.8514L208.43 30.2447H208.425L207.393 30.8265L206.455 33.6413L206.249 34.974L206.455 37.3945L208.8 37.8636L208.023 40.3456L210.381 47.4857C213.332 59.9648 217.362 70.7363 224.32 76.8868L224.892 77.8251L229.419 85.2328C230.037 86.2461 230.941 87.0538 232.017 87.5539C233.093 88.054 234.294 88.2242 235.466 88.043H235.471C236.267 87.9193 237.03 87.6352 237.714 87.2079C238.344 86.8191 238.895 86.3145 239.337 85.7207C240.145 84.6471 240.573 83.3348 240.552 81.991L240.51 79.6969Z" fill="#E6E6E6"/>
<path d="M39.2335 72.1109C39.2257 65.0588 41.92 58.2717 46.7625 53.1451L30.1439 30.2719C29.4598 29.3296 28.5807 28.5457 27.5664 27.9737C26.5521 27.4017 25.4265 27.055 24.2661 26.9572C23.1058 26.8594 21.938 27.0128 20.8423 27.407C19.7465 27.8011 18.7486 28.4268 17.9165 29.2413C12.2236 34.7907 7.70414 41.4277 4.62636 48.7578C1.54858 56.088 -0.0246973 63.962 -1.92976e-05 71.9121C2.70553e-05 74.9143 0.223846 77.9123 0.669568 80.8812C0.844427 82.055 1.27322 83.1765 1.92606 84.1675C2.5789 85.1586 3.44007 85.9953 4.4495 86.6193C5.44754 87.237 6.56832 87.6295 7.73367 87.7696C8.89902 87.9096 10.0809 87.7937 11.1968 87.43L39.8921 78.1062C39.4554 76.1377 39.2346 74.1274 39.2335 72.1109Z" fill="#F2F2F2"/>
<path d="M40.7596 81.1742L10.927 90.8674C9.82291 91.2243 8.80845 91.8144 7.95235 92.5976C7.09625 93.3808 6.41852 94.3389 5.96507 95.407C5.51163 96.4751 5.29307 97.6281 5.3242 98.788C5.35534 99.9479 5.63545 101.088 6.14554 102.13C10.394 110.749 16.6566 118.217 24.4033 123.903C32.15 129.589 41.1526 133.324 50.6489 134.793C51.8055 134.971 52.9868 134.896 54.1118 134.575C55.2368 134.253 56.279 133.692 57.1667 132.929C58.0533 132.169 58.7648 131.226 59.2525 130.165C59.7402 129.104 59.9924 127.949 59.9919 126.781V98.918C55.5735 97.7716 51.5064 95.5523 48.1514 92.457C44.7965 89.3617 42.2574 85.4861 40.7596 81.1742Z" fill="#E6E6E6"/>
<path d="M122.391 20.8268C121.464 19.92 120.353 19.2235 119.134 18.7847C117.914 18.3459 116.614 18.1751 115.322 18.2839C114.031 18.3928 112.777 18.7788 111.648 19.4155C110.519 20.0523 109.541 20.9249 108.779 21.974L86.5348 52.5907C89.0938 55.1559 91.1225 58.2001 92.505 61.5494C93.8875 64.8987 94.5967 68.4875 94.5922 72.1109C94.5922 72.7851 94.5597 73.451 94.5123 74.113L129.871 85.6019C131.121 86.0055 132.444 86.1316 133.748 85.9715C135.052 85.8115 136.306 85.3691 137.421 84.6751C138.537 83.9812 139.488 83.0524 140.208 81.9534C140.927 80.8545 141.399 79.6118 141.59 78.3119C142.086 75.0068 142.335 71.6693 142.335 68.3271C142.363 59.4772 140.611 50.7121 137.185 42.5522C133.759 34.3924 128.728 27.0043 122.391 20.8268Z" fill="#FF575C"/>
<path d="M66.9129 44.4316C71.6751 44.4262 76.3573 45.6557 80.5024 48.0001L94.0793 29.313C94.7714 28.3613 95.2488 27.2708 95.4784 26.1167C95.7081 24.9626 95.6846 23.7724 95.4096 22.6282C95.1433 21.5059 94.6366 20.4547 93.9246 19.5472C93.2126 18.6397 92.3121 17.8975 91.2853 17.3719C82.903 13.1089 73.6343 10.8802 64.2302 10.8665C54.8261 10.8528 45.551 13.0545 37.1563 17.2931C36.0977 17.8273 35.1678 18.5852 34.4311 19.5144C33.6945 20.4436 33.1686 21.5219 32.8901 22.6745C32.6153 23.8106 32.5909 24.9929 32.8185 26.1395C33.0461 27.286 33.5203 28.3693 34.2081 29.3144L49.6101 50.5135C54.514 46.5699 60.62 44.4236 66.9129 44.4316Z" fill="#E6E6E6"/>
</g>
<defs>
<clipPath id="clip0_1027_8856">
<rect width="323.314" height="260" fill="white"/>
</clipPath>
</defs>
</svg>
