<svg width="278" height="270" viewBox="0 0 278 270" fill="none" xmlns="http://www.w3.org/2000/svg">
<g clip-path="url(#clip0_1029_21554)">
<path d="M176.298 60.7217H101.765C100.066 60.7238 98.438 61.3994 97.237 62.6004C96.036 63.8014 95.3604 65.4297 95.3583 67.1282V232.778L94.5041 233.039L76.22 238.638C75.3535 238.902 74.4176 238.812 73.6176 238.386C72.8177 237.961 72.2192 237.236 71.9535 236.37L17.5667 58.7187C17.302 57.8521 17.3922 56.9159 17.8175 56.1159C18.2428 55.3158 18.9683 54.7173 19.8346 54.452L48.0103 45.8246L129.693 20.8223L157.868 12.1949C158.297 12.0629 158.748 12.0168 159.194 12.0592C159.641 12.1016 160.075 12.2316 160.471 12.4419C160.867 12.6521 161.218 12.9385 161.504 13.2845C161.789 13.6305 162.004 14.0295 162.135 14.4585L176.037 59.8675L176.298 60.7217Z" fill="#F2F2F2"/>
<path d="M192.561 59.8684L175.806 5.14005C175.528 4.22818 175.072 3.38017 174.465 2.64448C173.859 1.90879 173.113 1.29985 172.271 0.852449C171.429 0.405046 170.507 0.127947 169.558 0.036997C168.609 -0.053953 167.651 0.0430284 166.739 0.322389L127.126 12.4477L45.4477 37.4543L5.83442 49.5838C3.9942 50.1489 2.45335 51.421 1.5501 53.121C0.646849 54.821 0.454985 56.8099 1.01663 58.6511L58.2819 245.69C58.7382 247.176 59.6588 248.477 60.9087 249.402C62.1586 250.327 63.6719 250.827 65.2267 250.828C65.9462 250.828 66.6618 250.72 67.3492 250.508L94.5041 242.196L95.3583 241.932V241.039L94.5041 241.299L67.0973 249.692C65.473 250.187 63.7185 250.018 62.2189 249.221C60.7192 248.424 59.5968 247.065 59.0977 245.442L1.83684 58.3992C1.58958 57.5949 1.50341 56.7497 1.58325 55.9121C1.66308 55.0745 1.90735 54.2609 2.30208 53.5178C2.69682 52.7747 3.23426 52.1168 3.88361 51.5818C4.53297 51.0467 5.2815 50.645 6.08633 50.3996L45.6996 38.27L127.378 13.2677L166.991 1.13815C167.602 0.951854 168.236 0.856863 168.875 0.856268C170.244 0.859343 171.577 1.30094 172.678 2.11639C173.778 2.93183 174.589 4.07827 174.991 5.38778L191.669 59.8684L191.934 60.7226H192.822L192.561 59.8684Z" fill="#3F3D56"/>
<path d="M53.0947 54.5919C52.2716 54.5913 51.4702 54.327 50.8083 53.8376C50.1464 53.3482 49.6587 52.6596 49.4169 51.8727L43.9157 33.904C43.7679 33.4213 43.7166 32.9142 43.7647 32.4117C43.8129 31.9092 43.9596 31.4212 44.1964 30.9754C44.4332 30.5296 44.7556 30.1348 45.145 29.8136C45.5344 29.4923 45.9833 29.251 46.466 29.1033L121.609 6.09819C122.584 5.80073 123.637 5.90218 124.537 6.38028C125.437 6.85837 126.111 7.67404 126.41 8.64827L131.911 26.6172C132.208 27.592 132.107 28.6449 131.629 29.545C131.151 30.445 130.335 31.1186 129.361 31.4181L54.2178 54.4232C53.8539 54.5349 53.4754 54.5918 53.0947 54.5919Z" fill="#FF575C"/>
<path d="M81.9121 19.2001C86.6297 19.2001 90.454 15.3758 90.454 10.6582C90.454 5.94057 86.6297 2.11621 81.9121 2.11621C77.1945 2.11621 73.3701 5.94057 73.3701 10.6582C73.3701 15.3758 77.1945 19.2001 81.9121 19.2001Z" fill="#FF575C"/>
<path d="M81.9121 16.0671C84.8994 16.0671 87.3211 13.6454 87.3211 10.6581C87.3211 7.67073 84.8994 5.24902 81.9121 5.24902C78.9248 5.24902 76.5031 7.67073 76.5031 10.6581C76.5031 13.6454 78.9248 16.0671 81.9121 16.0671Z" fill="white"/>
<path d="M258.083 248.645H113.724C112.761 248.644 111.838 248.261 111.158 247.581C110.477 246.9 110.094 245.978 110.093 245.015V72.0405C110.094 71.078 110.477 70.1552 111.158 69.4746C111.838 68.7941 112.761 68.4112 113.724 68.4102H258.083C259.045 68.4113 259.968 68.7941 260.648 69.4747C261.329 70.1553 261.712 71.078 261.713 72.0405V245.015C261.712 245.978 261.329 246.9 260.648 247.581C259.968 248.261 259.045 248.644 258.083 248.645Z" fill="#E6E6E6"/>
<path d="M191.669 59.8682H101.765C99.84 59.8709 97.9948 60.6367 96.6338 61.9978C95.2727 63.3588 94.5069 65.204 94.5042 67.1288V241.299L95.3583 241.039V67.1288C95.3604 65.4304 96.036 63.8021 97.237 62.6011C98.438 61.4001 100.066 60.7244 101.765 60.7224H191.934L191.669 59.8682ZM270.041 59.8682H101.765C99.84 59.8709 97.9948 60.6367 96.6338 61.9978C95.2727 63.3588 94.5069 65.204 94.5042 67.1288V262.74C94.5069 264.664 95.2727 266.51 96.6338 267.871C97.9948 269.232 99.84 269.998 101.765 270H270.041C271.966 269.998 273.811 269.232 275.172 267.871C276.533 266.51 277.299 264.664 277.302 262.74V67.1288C277.299 65.204 276.533 63.3588 275.172 61.9978C273.811 60.6367 271.966 59.8709 270.041 59.8682ZM276.448 262.74C276.446 264.438 275.77 266.066 274.569 267.267C273.368 268.468 271.74 269.144 270.041 269.146H101.765C100.066 269.144 98.438 268.468 97.237 267.267C96.036 266.066 95.3604 264.438 95.3583 262.74V67.1288C95.3604 65.4304 96.036 63.8021 97.237 62.6011C98.438 61.4001 100.066 60.7244 101.765 60.7224H270.041C271.74 60.7244 273.368 61.4001 274.569 62.6011C275.77 63.8021 276.446 65.4304 276.448 67.1288V262.74Z" fill="#3F3D56"/>
<path d="M225.196 78.6597H146.61C145.591 78.6586 144.614 78.2532 143.893 77.5326C143.173 76.812 142.767 75.835 142.766 74.8159V56.0236C142.767 55.0045 143.173 54.0274 143.893 53.3068C144.614 52.5862 145.591 52.1808 146.61 52.1797H225.196C226.215 52.1808 227.192 52.5862 227.913 53.3068C228.633 54.0274 229.039 55.0045 229.04 56.0236V74.8159C229.039 75.835 228.634 76.812 227.913 77.5326C227.192 78.2532 226.215 78.6586 225.196 78.6597Z" fill="#FF575C"/>
<path d="M185.903 53.4618C190.621 53.4618 194.445 49.6375 194.445 44.9199C194.445 40.2023 190.621 36.3779 185.903 36.3779C181.185 36.3779 177.361 40.2023 177.361 44.9199C177.361 49.6375 181.185 53.4618 185.903 53.4618Z" fill="#FF575C"/>
<path d="M185.903 50.1225C188.776 50.1225 191.106 47.7931 191.106 44.9196C191.106 42.0462 188.776 39.7168 185.903 39.7168C183.03 39.7168 180.7 42.0462 180.7 44.9196C180.7 47.7931 183.03 50.1225 185.903 50.1225Z" fill="white"/>
</g>
<defs>
<clipPath id="clip0_1029_21554">
<rect width="276.604" height="270" fill="white" transform="translate(0.697998)"/>
</clipPath>
</defs>
</svg>
