<svg width="28" height="28" viewBox="0 0 28 28" fill="none" xmlns="http://www.w3.org/2000/svg">
<g id="Iconly/Light-Outline/Arrow - Left">
<g id="Group">
<path id="Vector" d="M23.3333 14.3203C23.3333 14.7633 23.0041 15.1294 22.577 15.1873L22.4583 15.1953L4.95825 15.1953C4.475 15.1953 4.08325 14.8036 4.08325 14.3203C4.08325 13.8773 4.41243 13.5112 4.83952 13.4533L4.95825 13.4453L22.4583 13.4453C22.9415 13.4453 23.3333 13.8371 23.3333 14.3203Z" fill="#212121"/>
<path id="Vector_2" d="M12.6339 20.7286C12.9763 21.0696 12.9775 21.6236 12.6365 21.9661C12.3266 22.2774 11.8405 22.3067 11.4974 22.0532L11.3991 21.9687L4.34076 14.9407C4.02852 14.6298 4.00011 14.142 4.25556 13.7989L4.34071 13.7007L11.399 6.67151C11.7415 6.33051 12.2955 6.33165 12.6365 6.67407C12.9465 6.98535 12.9737 7.47152 12.7188 7.81354L12.6339 7.9115L6.19855 14.321L12.6339 20.7286Z" fill="#212121"/>
</g>
</g>
</svg>
