<svg xmlns="http://www.w3.org/2000/svg" width="24" height="24" viewBox="0 0 24 24"  xmlns:xlink="http://www.w3.org/1999/xlink" preserveAspectRatio="xMinYMin meet"><rect id="svgEditorBackground" x="0" y="0" width="24" height="24" style="fill:none;stroke:none"/><g fill="none" stroke="currentColor" stroke-linecap="round" stroke-linejoin="round" stroke-width="2"><path d="M11.8182,20.8939v0.0303a1.5,1.5,0,0,0,0,0v0.1515a1.5,1.5,0,0,0,0,-0.1818ZM7.5152,4.2121h-0.0758a1.5,1.5,0,0,1,-0.0606,-0.0303h0.0152h-0.0152a1.5,1.5,0,0,1,0,0h0.1364M3,12v0.01M7.5,4.2v0.01M7.5,19.8v0.01M4.2,16.5v0.01M4.2,7.5v0.01"/><path d="M11.6667,20.8788a8.9439,8.9439,0,1,0,0.3333,-17.8788"/></g></svg>