<svg width="24" height="24" viewBox="0 0 24 24" fill="none" xmlns="http://www.w3.org/2000/svg">
<g id="Frame">
<g id="Group">
<path id="Vector" d="M16.7244 5.05313C16.9874 5.23232 17.1685 5.50865 17.2278 5.82135C17.2871 6.13405 17.2198 6.45749 17.0406 6.72054C16.8614 6.98358 16.5851 7.16467 16.2724 7.22396C15.9597 7.28326 15.6362 7.21592 15.3732 7.03673C14.2653 6.2836 12.9373 5.92288 11.6006 6.01205C10.264 6.10122 8.9956 6.63514 7.99759 7.52876C6.99957 8.42238 6.32931 9.62428 6.0936 10.943C5.85788 12.2617 6.07027 13.6214 6.69692 14.8054C7.32357 15.9894 8.32843 16.9297 9.55142 17.4764C10.7744 18.0231 12.1452 18.1448 13.4454 17.8221C14.7455 17.4993 15.9003 16.7508 16.7257 15.6957C17.5511 14.6406 17.9997 13.3396 18 11.9999C18 11.6817 18.1264 11.3765 18.3515 11.1514C18.5765 10.9264 18.8817 10.7999 19.2 10.7999C19.5182 10.7999 19.8235 10.9264 20.0485 11.1514C20.2736 11.3765 20.4 11.6817 20.4 11.9999C20.3997 13.8755 19.7717 15.6971 18.6161 17.1743C17.4604 18.6516 15.8436 19.6996 14.0232 20.1513C12.2029 20.6031 10.2837 20.4326 8.57142 19.6671C6.85918 18.9015 5.4524 17.585 4.57523 15.9271C3.69806 14.2693 3.40097 12.3656 3.73128 10.5193C4.06158 8.67304 5.0003 6.99043 6.39785 5.73956C7.79541 4.48869 9.57139 3.74154 11.4429 3.61714C13.3143 3.49274 15.1736 3.99825 16.7244 5.05313Z" fill="#BDBDBD"/>
<path id="Vector_2" d="M16.2468 15.0073C16.114 15.0922 15.9658 15.1502 15.8106 15.1779C15.6555 15.2055 15.4964 15.2024 15.3424 15.1685C15.1885 15.1347 15.0427 15.0709 14.9135 14.9808C14.7842 14.8906 14.6739 14.7759 14.589 14.6431C14.504 14.5103 14.4461 14.3621 14.4184 14.207C14.3907 14.0518 14.3939 13.8927 14.4277 13.7388C14.4616 13.5848 14.5254 13.4391 14.6155 13.3098C14.7057 13.1805 14.8204 13.0702 14.9532 12.9853L19.1316 10.3129C19.3996 10.147 19.7222 10.0933 20.0296 10.1633C20.3369 10.2333 20.6044 10.4214 20.7742 10.687C20.944 10.9527 21.0024 11.2744 20.9369 11.5828C20.8713 11.8911 20.6871 12.1613 20.424 12.3349L16.2468 15.0073Z" fill="#BDBDBD"/>
<path id="Vector_3" d="M22.6836 14.8917C22.8061 15.1811 22.8102 15.507 22.695 15.7994C22.5798 16.0917 22.3546 16.3272 22.0676 16.4553C21.7807 16.5834 21.4549 16.5938 21.1604 16.4843C20.8658 16.3748 20.626 16.1541 20.4924 15.8697L18.6828 11.8137C18.6149 11.6693 18.5766 11.5128 18.5699 11.3534C18.5633 11.194 18.5885 11.0349 18.6441 10.8854C18.6997 10.7358 18.7846 10.5989 18.8937 10.4825C19.0029 10.3662 19.1341 10.2727 19.2798 10.2077C19.4255 10.1427 19.5827 10.1074 19.7422 10.1038C19.9017 10.1003 20.0603 10.1286 20.2087 10.187C20.3572 10.2455 20.4925 10.333 20.6067 10.4444C20.7209 10.5558 20.8118 10.6888 20.874 10.8357L22.6836 14.8917Z" fill="#BDBDBD"/>
</g>
</g>
</svg>
